<svg width="28" height="23" viewBox="0 0 28 23" fill="none" xmlns="http://www.w3.org/2000/svg">
<path d="M6.7975 22.44C4.7175 22.44 3.1375 21.68 2.0575 20.16C0.9775 18.6 0.4375 16.44 0.4375 13.68C0.4375 10.68 1.1975 8.02 2.7175 5.7C4.2775 3.38 6.6375 1.48 9.7975 0L11.9575 4.44C10.0375 5.28 8.5975 6.32 7.6375 7.56C6.6775 8.8 6.1975 10.3 6.1975 12.06C6.2775 12.02 6.3775 12 6.4975 12C6.6175 12 6.7175 12 6.7975 12C8.2375 12 9.4575 12.44 10.4575 13.32C11.4575 14.2 11.9575 15.4 11.9575 16.92C11.9575 18.6 11.4775 19.94 10.5175 20.94C9.5575 21.94 8.3175 22.44 6.7975 22.44ZM22.3975 22.44C20.3175 22.44 18.7375 21.68 17.6575 20.16C16.5775 18.6 16.0375 16.44 16.0375 13.68C16.0375 10.68 16.7975 8.02 18.3175 5.7C19.8775 3.38 22.2375 1.48 25.3975 0L27.5575 4.44C25.6375 5.28 24.1975 6.32 23.2375 7.56C22.2775 8.8 21.7975 10.3 21.7975 12.06C21.8775 12.02 21.9775 12 22.0975 12C22.2175 12 22.3175 12 22.3975 12C23.8375 12 25.0575 12.44 26.0575 13.32C27.0575 14.2 27.5575 15.4 27.5575 16.92C27.5575 18.6 27.0775 19.94 26.1175 20.94C25.1575 21.94 23.9175 22.44 22.3975 22.44Z" fill="#F65009"/>
</svg>
