<svg width="100" height="31" viewBox="0 0 100 31" fill="none" xmlns="http://www.w3.org/2000/svg">
<path fill-rule="evenodd" clip-rule="evenodd" d="M45.8338 0.148641H43.5341V0.214704C43.4841 1.86628 43.5007 3.51785 43.5341 5.1529V18.6628C43.2674 21.2722 41.7843 23.4523 38.6846 23.5514C37.2864 23.5283 36.3215 23.2872 35.6716 23.1071C35.3049 22.9635 34.9383 22.7686 34.4684 22.4779C33.7518 23.667 33.0518 24.8727 32.3353 26.0618C32.3486 26.0618 32.3619 26.0635 32.3736 26.0651C32.3653 26.075 32.3586 26.0849 32.3519 26.0948C38.018 31 45.4339 27.9116 47.5503 22.643C48.9002 19.2904 48.4669 4.36015 48.2002 0.0660629L45.8338 0.148641ZM0.00537109 27.7134V28.2914L5.45479 28.4566L7.5879 23.7826L20.9198 23.8322L22.9529 28.6052L28.3024 28.2419L14.0372 0.759723L0.00537109 27.7134ZM10.2209 19.0426L13.8206 10.5701L18.2701 19.0426H10.2209ZM85.5296 0C77.5471 0 71.0811 6.4081 71.0811 14.3191C71.0811 22.2302 77.5471 28.6383 85.5296 28.6383C93.5121 28.6383 99.9947 22.2302 99.9947 14.3191C99.9947 6.4081 93.5121 0 85.5296 0ZM85.5296 23.7496C80.2802 23.7496 76.0139 19.5216 76.0139 14.3191C76.0139 9.11668 80.2802 4.88865 85.5296 4.88865C90.779 4.88865 95.0452 9.11668 95.0452 14.3191C95.0452 19.5216 90.7957 23.7496 85.5296 23.7496Z" fill="#435F74"/>
<path d="M58.2992 0.0661621H62.7821V28.6549H58.2992V0.0661621Z" fill="#435F74"/>
</svg>
