<svg width="133" height="40" viewBox="0 0 133 40" fill="none" xmlns="http://www.w3.org/2000/svg">
<path d="M29.858 9.81256V22.1905C29.858 22.3911 29.7783 22.5835 29.6364 22.7254C29.4945 22.8673 29.3021 22.947 29.1014 22.947H25.1934C24.9928 22.9469 24.8004 22.8672 24.6585 22.7253C24.5166 22.5834 24.4369 22.3911 24.4368 22.1905V2.05719C24.4368 1.85655 24.5165 1.66413 24.6584 1.52225C24.8003 1.38038 24.9927 1.30067 25.1934 1.30067H28.8098C29.0105 1.30067 29.2029 1.38038 29.3448 1.52225C29.4867 1.66413 29.5665 1.85655 29.5665 2.05719V4.89249C29.5665 4.89249 30.8592 0.848025 34.6958 0.848025C34.6958 0.848025 38.4907 0.389375 40.0337 4.60062C40.0337 4.60062 41.3265 0.848025 45.2465 0.848025C45.2465 0.848025 51.0761 0.501452 51.0761 6.53262L51.1205 9.85426V22.2322C51.1205 22.4328 51.0407 22.6252 50.8988 22.7671C50.7569 22.909 50.5645 22.9887 50.3638 22.9887H46.4555C46.2548 22.9886 46.0624 22.9089 45.9206 22.767C45.7787 22.6251 45.6989 22.4328 45.6988 22.2322L45.6631 8.72848C45.7742 5.67069 43.3001 5.89318 43.3001 5.89318C40.1865 5.94889 40.4861 9.85426 40.4861 9.85426V22.2322C40.4861 22.4328 40.4064 22.6252 40.2645 22.7671C40.1226 22.909 39.9301 22.9887 39.7294 22.9887H35.8214C35.6208 22.9886 35.4284 22.9089 35.2865 22.767C35.1446 22.6251 35.0649 22.4328 35.0648 22.2322V9.03402C35.0648 9.03402 35.2933 5.86516 32.513 5.86516C32.5133 5.86516 29.761 5.50391 29.858 9.81256ZM130.595 9.77553V22.1531C130.595 22.3537 130.516 22.5461 130.374 22.6879C130.232 22.8298 130.039 22.9095 129.839 22.9096L125.774 22.9883C125.574 22.9883 125.381 22.9085 125.239 22.7667C125.097 22.6248 125.018 22.4324 125.018 22.2318V9.03402C125.018 9.03402 125.246 5.86516 122.466 5.86516C122.466 5.86516 119.811 5.73441 119.811 10.7028V22.1901C119.811 22.3907 119.731 22.5831 119.589 22.725C119.447 22.8668 119.255 22.9466 119.054 22.9466H115.146C114.945 22.9466 114.753 22.8668 114.611 22.725C114.469 22.5831 114.389 22.3907 114.389 22.1901V2.05719C114.389 1.85658 114.469 1.66421 114.611 1.52235C114.753 1.38049 114.945 1.30076 115.146 1.30067H118.762C118.963 1.30067 119.155 1.38038 119.297 1.52225C119.439 1.66413 119.519 1.85655 119.519 2.05719V4.89249C119.519 4.89249 120.812 0.848025 124.648 0.848025C124.648 0.848025 128.758 0.224594 130.142 4.52223C130.143 4.5219 130.595 5.40851 130.595 9.77553ZM102.378 0.764634C97.3805 0.764634 93.3287 4.97588 93.3287 12.0641C93.3287 18.3048 96.4563 23.3636 102.378 23.3636C107.966 23.3636 111.427 18.3048 111.427 12.0641C111.427 5.10097 107.376 0.764634 102.378 0.764634ZM105.532 12.3143C105.532 14.9828 105.199 16.4005 105.199 16.4005C104.724 19.2214 102.676 19.2254 102.374 19.2104C102.048 19.2234 99.9827 19.1941 99.5553 16.4005C99.5553 16.4005 99.2217 14.9828 99.2217 12.3143V11.8696C99.2217 9.20114 99.5553 7.78349 99.5553 7.78349C99.9827 4.98989 102.048 4.96054 102.374 4.97321C102.676 4.9582 104.724 4.96187 105.199 7.78349C105.199 7.78349 105.532 9.20114 105.532 11.8696V12.3143ZM91.0604 4.86447V1.97581C91.0603 1.77519 90.9806 1.58282 90.8387 1.44096C90.6968 1.2991 90.5044 1.21937 90.3038 1.21928H77.3861C77.1854 1.21928 76.993 1.29899 76.8511 1.44086C76.7092 1.58274 76.6295 1.77516 76.6295 1.97581V4.84212C76.6296 5.04274 76.7093 5.23511 76.8512 5.37697C76.9931 5.51882 77.1855 5.59856 77.3861 5.59865H84.1242L76.1487 17.1666C76.1487 17.1666 75.8345 17.6356 75.8448 18.1537V21.6724C75.8448 21.6724 75.7928 22.8789 77.1613 22.1788C77.1613 22.1788 79.592 20.7104 83.6678 20.7104C83.6678 20.7104 87.6929 20.6604 90.3765 22.3052C90.3765 22.3052 91.4904 22.8116 91.4904 21.6981V18.6353C91.4904 18.6353 91.5915 17.8248 90.5283 17.3188C90.5283 17.3188 87.4397 15.6229 83.3892 15.9011L91.0604 4.86447ZM21.4205 19.3465L20.1972 17.4845C19.8078 16.7894 19.8359 16.0108 19.8359 16.0108V7.42191C20.0027 0.000105045 11.7733 0.639548 11.7733 0.639548C4.45778 0.639548 3.37719 6.33182 3.37719 6.33182C3.07227 7.47628 3.95902 7.50396 3.95902 7.50396L7.53373 7.86655C7.53373 7.86655 8.14325 8.00598 8.3651 7.28048C8.3651 7.28048 8.83584 4.79709 11.4684 4.79709C14.3328 4.79709 14.3032 7.25512 14.3032 7.25512V9.31288C8.58496 9.50401 5.93504 11.0911 5.93504 11.0911C2.40437 13.0925 2.62656 17.0676 2.62656 17.0676C2.62656 23.5441 8.79847 23.2659 8.79847 23.2659C12.7462 23.2659 15.0815 20.3752 15.0815 20.3752C15.7764 21.5987 17.0555 22.7655 17.0555 22.7655C17.6954 23.4593 18.3623 22.8769 18.3623 22.8769L21.2537 20.4032C21.8929 19.9302 21.4205 19.3465 21.4205 19.3465ZM10.7251 19.2664C8.8682 19.2664 8.17794 17.4215 8.4862 15.6082C8.7948 13.795 10.3975 12.37 14.3035 12.4117V13.5141C14.4419 18.3301 12.2708 19.2664 10.7251 19.2664ZM73.3534 19.3465L72.1303 17.4845C71.741 16.7894 71.7687 16.0108 71.7687 16.0108V7.42191C71.9355 0.000105045 63.7062 0.639548 63.7062 0.639548C56.3906 0.639548 55.31 6.33182 55.31 6.33182C55.0051 7.47628 55.8918 7.50396 55.8918 7.50396L59.4666 7.86655C59.4666 7.86655 60.0761 8.00598 60.2979 7.28048C60.2979 7.28048 60.7687 4.79709 63.4012 4.79709C66.2657 4.79709 66.236 7.25512 66.236 7.25512V9.31288C60.5181 9.50401 57.8679 11.0911 57.8679 11.0911C54.3372 13.0925 54.5594 17.0676 54.5594 17.0676C54.5594 23.5441 60.7313 23.2659 60.7313 23.2659C64.679 23.2659 67.0143 20.3752 67.0143 20.3752C67.7096 21.5987 68.988 22.7655 68.988 22.7655C69.6279 23.4593 70.2951 22.8769 70.2951 22.8769L73.1862 20.4032C73.8258 19.9302 73.3534 19.3465 73.3534 19.3465ZM62.6579 19.2664C60.801 19.2664 60.1108 17.4215 60.419 15.6082C60.7276 13.795 62.3303 12.37 66.236 12.4117V13.5141C66.3748 18.3301 64.2039 19.2664 62.6579 19.2664Z" fill="black"/>
<path d="M83.1938 35.6036C83.1938 35.6036 82.8668 36.1724 83.2685 36.2995C83.2685 36.2995 83.7222 36.4766 84.288 35.9515C84.288 35.9515 88.4145 32.3474 88.514 25.7855C88.514 25.7855 88.5443 24.966 88.2154 24.7418C88.2154 24.7418 86.9226 23.5983 82.274 23.9462C82.274 23.9462 78.2219 24.2198 76.0096 26.1835C76.0096 26.1835 75.8108 26.3572 75.8108 26.5807C75.8108 26.5807 75.7631 27.0634 76.9791 26.8543C76.9791 26.8543 81.0309 26.2822 83.4423 26.5807C83.4423 26.5807 84.6857 26.7298 85.0337 27.1528C85.0337 27.1528 85.6055 27.6251 85.3069 29.1905C85.3069 29.1912 84.4862 33.168 83.1938 35.6036Z" fill="#F3971B"/>
<path d="M82.3769 29.3083C82.3769 29.3083 82.9821 30.0922 82.0056 30.7683C82.0056 30.7683 71.5744 39.1107 54.0595 39.1107C54.0595 39.1107 36.0301 40 20.9756 26.3239C20.9756 26.3239 20.4478 25.8606 20.7754 25.4299C20.7754 25.4299 21.0683 25.0337 21.8266 25.4646C21.8266 25.4646 35.9884 34.2877 54.5876 34.2877C54.5876 34.2877 67.5153 34.7881 80.7766 29.1175C80.7766 29.1175 81.8331 28.5701 82.3769 29.3083Z" fill="#F3971B"/>
</svg>
