<svg width="125" height="26" viewBox="0 0 125 26" fill="none" xmlns="http://www.w3.org/2000/svg">
<g clip-path="url(#clip0_16_225)">
<path d="M9.86531 18.5024C11.8662 21.7893 15.5358 23.9946 19.6198 23.9946C25.6542 23.9946 28.976 18.7769 28.976 18.7769L29.4036 20.1668C26.6099 23.8072 21.6191 26.0002 16.0353 26.0002C9.60656 26.0002 4.06224 22.9275 1.51112 18.4964C0.550594 16.8275 0.0144043 14.9632 0.0144043 12.9999C0.0144043 5.82004 7.18644 0 16.0351 0C22.2872 0 27.3209 2.68311 29.9633 6.57145L19.4729 12.8654L25.4598 3.65474C23.747 2.57544 21.6456 1.56476 19.4729 1.56476C13.3311 1.56476 8.27242 6.69993 8.27242 12.8534C8.27242 14.9152 8.85681 16.8524 9.86531 18.5024ZM37.9543 18.4987C37.9228 18.7087 37.9071 18.9207 37.9072 19.133C37.9072 21.4688 39.7974 23.3629 42.129 23.3629C44.4605 23.3629 46.3504 21.4691 46.3504 19.133C46.3505 18.9199 46.3347 18.7071 46.3032 18.4964C45.9978 16.4638 44.2454 14.9034 42.1287 14.9034C40.0123 14.9034 38.2596 16.4638 37.9543 18.4987ZM53.6191 18.4964L55.7173 25.5776H48.3573L46.9102 20.7287C45.9411 23.5228 42.6707 25.5776 38.7857 25.5776C34.1373 25.5776 30.3694 22.6362 30.3694 19.0071C30.3694 18.8372 30.3777 18.6686 30.3939 18.4964C30.7246 15.1093 34.3552 12.4365 38.7857 12.4365C41.3003 12.4365 43.5574 13.2975 45.0996 14.6624L43.0948 7.94675H34.6477C34.6477 7.94675 36.0531 7.10221 42.2856 4.83016C48.518 2.55834 50.4931 7.94675 50.4931 7.94675L53.6191 18.4964ZM77.1508 18.4964V25.5776H69.5777V10.0196C69.5777 9.46986 69.3598 8.94262 68.9718 8.55388C68.5838 8.16514 68.0576 7.94675 67.5088 7.94675C67.0921 7.94665 66.6851 8.07264 66.341 8.30823C65.997 8.54381 65.7319 8.878 65.5806 9.26705V25.5776H58.148V7.94675H53.8133C53.8133 7.94675 59.8435 4.28646 61.9346 4.28646C63.9163 4.28646 65.383 5.81195 65.5663 7.75519C68.4828 6.17911 71.3747 4.28646 73.3645 4.28646C75.4203 4.28646 77.0936 5.92794 77.1508 7.97447V18.4964ZM88.8172 18.4964L89.8711 21.9866C89.8914 23.4826 91.1183 24.6792 92.6242 24.6792C94.1638 24.6792 95.4115 23.4292 95.4115 21.8868C95.4115 21.7775 95.4053 21.6701 95.393 21.5643L94.4971 18.4964L91.3507 7.72261C91.1958 6.32653 90.0148 5.24122 88.5801 5.24122C87.1599 5.24122 85.806 6.57076 85.633 7.94652L88.8172 18.4964ZM100.869 18.4978C99.4351 22.855 95.3391 26.0002 90.5094 26.0002C85.6796 26.0002 81.5833 22.8552 80.1486 18.4964C79.7855 17.3917 79.601 16.2359 79.6023 15.0728C79.6023 9.0376 84.4854 4.14552 90.5094 4.14552C96.533 4.14552 101.416 9.0376 101.416 15.0728C101.416 16.269 101.224 17.4206 100.869 18.4978ZM113.408 18.4964V25.5776H105.975V7.94675H101.819C101.819 7.94675 107.671 4.28646 109.762 4.28646C111.744 4.28646 113.211 5.81195 113.394 7.75519C116.311 6.17911 119.202 4.28646 121.192 4.28646C123.248 4.28646 124.922 5.92794 124.979 7.97447V25.5776H117.405V10.0196C117.405 9.46986 117.187 8.94262 116.799 8.55388C116.411 8.16514 115.885 7.94675 115.337 7.94675C114.92 7.94665 114.513 8.07264 114.169 8.30823C113.825 8.54381 113.56 8.878 113.408 9.26705V18.4964Z" fill="#CC2229"/>
</g>
<defs>
<clipPath id="clip0_16_225">
<rect width="125" height="26" fill="white"/>
</clipPath>
</defs>
</svg>
