<svg width="165" height="43" viewBox="0 0 165 43" fill="none" xmlns="http://www.w3.org/2000/svg">
<g clip-path="url(#clip0_16_199)">
<path d="M164.968 7.45165C164.949 7.39086 164.931 7.33007 164.906 7.26929C150.339 7.27537 135.778 7.26929 121.216 7.27537C121.179 7.31792 121.155 7.36047 121.149 7.41517C121.149 18.5816 121.149 29.7418 121.142 40.9083C121.235 41.504 121.567 42.045 122.009 42.4523C122.028 42.4584 122.071 42.4643 122.089 42.4705C122.317 42.7074 122.643 42.8231 122.95 42.9324C123.178 42.9203 123.399 43.0175 123.627 42.9932H141.705C141.878 42.9871 142.056 43.0175 142.222 42.9507C142.228 42.9265 142.234 42.8839 142.24 42.8595C142.246 42.8292 142.253 42.7623 142.259 42.7259C142.646 40.5863 143.021 38.4405 143.433 36.3009L143.47 36.0273C141.798 36.0211 140.119 36.0273 138.446 36.0211C138.04 36.009 137.622 36.0211 137.217 35.9724C136.522 35.942 135.821 35.9663 135.126 35.8995C134.265 35.8995 133.41 35.8205 132.549 35.8205C131.873 35.7536 131.19 35.778 130.508 35.7476C130.065 35.693 129.61 35.7172 129.161 35.6989C128.429 35.6199 127.685 35.6747 126.954 35.5956C126.179 35.6018 125.404 35.5348 124.629 35.5165C124.635 35.5104 124.642 35.4861 124.642 35.4801C124.9 35.4861 125.152 35.468 125.41 35.4619C125.982 35.3889 126.56 35.4376 127.132 35.3585C127.728 35.3585 128.319 35.2795 128.915 35.2795C129.444 35.2065 129.979 35.2491 130.508 35.1761C131.129 35.1761 131.738 35.0972 132.359 35.091C132.869 35.0242 133.386 35.0606 133.896 34.9938C134.493 34.9998 135.083 34.9087 135.679 34.9148C136.264 34.8478 136.86 34.866 137.444 34.8052C137.389 34.5805 137.346 34.3555 137.297 34.1305C137.254 33.9907 137.081 34.0211 136.971 34.0028C135.636 33.8143 134.308 33.626 132.98 33.4437C133.066 33.3767 133.183 33.4071 133.281 33.395C134.314 33.3159 135.341 33.2247 136.374 33.1518C136.608 33.1397 136.835 33.0971 137.069 33.091C136.965 32.775 136.903 32.4285 136.762 32.1368C134.554 31.8024 132.347 31.5046 130.145 31.1459C130.717 31.0547 131.295 31.0122 131.867 30.9514L131.916 30.9331C133.742 30.7446 135.575 30.5318 137.401 30.3557C139.719 30.3436 142.032 30.3495 144.35 30.3557C144.423 30.3436 144.553 30.3799 144.565 30.2766C144.756 29.2919 144.94 28.3072 145.131 27.3224C145.395 25.9548 145.813 24.6053 146.459 23.3592C147.473 21.3532 149.078 19.6512 151.034 18.5207C152.86 17.463 154.975 16.9524 157.078 16.8551C157.761 16.7943 158.45 16.8126 159.126 16.8977C159.569 17.001 160.024 17.1226 160.374 17.4204C160.663 17.6514 160.836 17.9918 160.965 18.3322C161.248 19.1407 161.407 19.9795 161.543 20.8245C161.549 21.1649 161.61 21.5478 161.426 21.8578C161.254 22.1618 160.91 22.3076 160.584 22.3988C159.397 22.7028 158.155 22.417 156.968 22.7028C155.99 22.9094 155.08 23.4443 154.459 24.2163C153.727 25.1159 153.34 26.2342 153.125 27.3529C152.959 28.3498 152.749 29.3466 152.583 30.3496C153.752 30.3558 154.926 30.3435 156.101 30.3558C156.568 30.3558 157.048 30.611 157.238 31.0486C157.484 31.6079 157.429 32.2402 157.349 32.8297C157.251 33.4923 157.091 34.1487 156.789 34.7566C156.537 35.2733 156.119 35.7475 155.547 35.9298C155.252 36.0453 154.932 36.021 154.619 36.021C153.586 36.021 152.553 36.0331 151.52 36.021C151.354 36.7687 151.243 37.5346 151.095 38.2944C150.825 39.7714 150.56 41.2546 150.29 42.7379C150.284 42.7865 150.277 42.8898 150.277 42.9445C150.763 42.9688 151.249 42.9445 151.735 42.9566C155.338 42.9566 158.948 42.9504 162.557 42.9566C162.945 42.9688 163.338 42.8777 163.677 42.6892C163.879 42.6163 164.002 42.4399 164.181 42.3427C164.353 42.2455 164.402 42.045 164.55 41.9172C164.71 41.6376 164.876 41.346 164.888 41.0175C164.906 41.0175 164.956 41.0115 164.98 41.0055C164.961 29.8209 164.98 18.6363 164.968 7.45165Z" fill="url(#paint0_linear_16_199)" stroke="#FCD109" stroke-width="0.094"/>
<path d="M126.88 0.0966162C127.402 -0.0675063 127.95 0.0419087 128.485 0.00543703C138.526 0.0115156 148.568 0.00543703 158.609 0.00543703C159.206 -0.0188774 159.729 0.315446 160.282 0.485647C160.725 0.661927 161.186 0.801735 161.629 0.990172C161.721 1.02664 161.788 1.10567 161.856 1.17253C161.85 1.97491 161.856 2.78336 161.856 3.59182C161.862 3.80457 161.825 4.0234 161.899 4.23007C162.028 4.24831 162.096 4.34557 162.182 4.42459C162.588 4.60695 162.932 4.9048 163.301 5.14794C163.854 5.53697 164.445 5.87738 164.986 6.27856C165.01 6.43661 164.992 6.60073 164.943 6.74662C164.888 6.91682 164.924 7.09918 164.906 7.26938C150.339 7.27546 135.777 7.26938 121.216 7.27546C121.185 7.07486 121.241 6.87427 121.155 6.68583C121.142 6.52779 121.087 6.32111 121.241 6.2117C121.856 5.7862 122.507 5.40324 123.11 4.95343C123.485 4.71636 123.848 4.47322 124.211 4.23007C124.284 4.1085 124.26 3.95653 124.26 3.82281C124.26 2.94141 124.26 2.06001 124.266 1.17861C124.475 0.91115 124.838 0.880757 125.127 0.747028C125.711 0.528198 126.302 0.315446 126.88 0.0966162ZM126.916 0.199953C126.129 0.497805 125.336 0.7835 124.549 1.08135C124.444 1.09959 124.389 1.19077 124.334 1.26979C124.34 1.31842 124.346 1.40352 124.346 1.45215C124.34 2.18158 124.346 2.91101 124.34 3.64045C124.346 3.82281 124.321 4.00516 124.389 4.16929C124.309 4.24831 124.223 4.32733 124.125 4.38812C123.233 4.95951 122.372 5.57952 121.48 6.14484C121.327 6.23601 121.155 6.35759 121.204 6.55818C121.173 6.6676 121.228 6.75877 121.345 6.72838C123.276 6.71622 125.201 6.74054 127.132 6.71015C130.003 6.71015 132.869 6.71622 135.741 6.71015L135.784 6.69191C135.913 6.7223 136.042 6.71015 136.177 6.71015C141.379 6.71015 146.581 6.71622 151.79 6.71015C153.425 6.71622 155.067 6.71015 156.709 6.71015C159.415 6.71015 162.127 6.73446 164.832 6.7223C164.912 6.70407 164.937 6.64936 164.906 6.5521C164.9 6.45484 164.937 6.32111 164.832 6.26033C164.402 6.05973 164.033 5.74973 163.621 5.50658C163.473 5.38501 163.283 5.31814 163.172 5.15402C162.748 4.91696 162.354 4.62518 161.936 4.3638C161.856 4.31517 161.794 4.23615 161.727 4.16929C161.764 4.04164 161.776 3.90183 161.776 3.7681C161.77 2.99611 161.776 2.22413 161.77 1.45215C161.788 1.33057 161.782 1.19077 161.671 1.11174C160.934 0.850364 160.202 0.570748 159.47 0.303289C159.242 0.193874 158.99 0.133088 158.744 0.0966162H127.316C127.181 0.102695 127.052 0.16956 126.916 0.199953Z" fill="#F8F3B5" stroke="#F8F3B5" stroke-width="0.094"/>
<path d="M124.346 1.45215C124.887 1.67706 125.465 1.80471 126.013 2.02354C126.308 2.13903 126.4 2.45512 126.529 2.71042C126.4 2.83807 126.246 2.94141 126.092 3.03867C125.527 3.41554 124.949 3.78026 124.389 4.16929C124.321 4.00517 124.346 3.82281 124.34 3.64045C124.346 2.91102 124.34 2.18158 124.346 1.45215ZM160.104 2.02354C160.651 1.81079 161.223 1.6649 161.77 1.45215C161.776 2.22413 161.77 2.99612 161.776 3.7681C161.776 3.90183 161.764 4.04164 161.727 4.16929C161.247 3.84105 160.762 3.53104 160.282 3.20887C160.048 3.03867 159.79 2.91102 159.581 2.70434C159.71 2.44904 159.809 2.13903 160.104 2.02354Z" fill="#F7B402" stroke="#F7B402" stroke-width="0.094"/>
<path d="M133.73 2.2726C134.407 2.11456 135.163 2.71026 135.108 3.4093C135.114 4.09618 134.382 4.65542 133.712 4.49737C133.441 4.40619 133.183 4.26639 133.017 4.02932C132.802 3.70715 132.753 3.27557 132.925 2.92301C133.048 2.58261 133.38 2.35162 133.73 2.2726ZM151.274 2.65555C151.557 2.34554 152.006 2.16926 152.424 2.27868C152.737 2.36986 153.045 2.57045 153.18 2.87438C153.451 3.39714 153.242 4.10226 152.713 4.3758C152.245 4.6311 151.655 4.50953 151.299 4.13873C150.936 3.73147 150.911 3.06282 151.274 2.65555Z" fill="#BDA727" stroke="#BDA727" stroke-width="0.094"/>
<path d="M126.092 3.03867C126.246 2.94141 126.4 2.83808 126.529 2.71042L126.572 2.75297C126.615 3.06906 126.584 3.39123 126.597 3.70732C126.578 4.65558 126.615 5.60993 126.572 6.55819C124.783 6.55819 122.993 6.54603 121.204 6.55819C121.155 6.3576 121.327 6.23602 121.481 6.14484C122.372 5.57953 123.233 4.95951 124.125 4.38812C124.223 4.32734 124.309 4.24831 124.389 4.16929C124.949 3.78026 125.527 3.41554 126.092 3.03867ZM159.519 2.9171C159.519 2.83808 159.538 2.77121 159.581 2.70435C159.79 2.91102 160.048 3.03867 160.282 3.20887C160.761 3.53104 161.247 3.84105 161.727 4.16929C161.795 4.23616 161.856 4.31518 161.936 4.36381C162.354 4.62519 162.748 4.91696 163.172 5.15403C163.283 5.31815 163.473 5.38502 163.621 5.50659C164.033 5.74973 164.402 6.05974 164.832 6.26034C164.937 6.32112 164.9 6.45485 164.906 6.55211C163.116 6.55819 161.333 6.54603 159.544 6.55819C159.513 6.31505 159.532 6.0719 159.525 5.83483C159.526 4.86226 159.513 3.88968 159.519 2.9171Z" fill="#F7E62D" stroke="#F7E62D" stroke-width="0.094"/>
<path d="M164.906 6.55192C163.117 6.558 161.333 6.54584 159.544 6.558C159.513 6.31485 159.532 6.07171 159.526 5.83464C159.526 4.86207 159.513 3.88949 159.519 2.91691C159.519 2.83789 159.538 2.77102 159.581 2.70416C159.71 2.44886 159.808 2.13885 160.104 2.02336C160.651 1.8106 161.223 1.66472 161.77 1.45197C161.789 1.33039 161.782 1.19059 161.672 1.11156C160.934 0.850184 160.202 0.570567 159.47 0.303108C159.243 0.193693 158.991 0.132907 158.745 0.0964355H127.316C127.181 0.102514 127.052 0.169379 126.916 0.199772C126.129 0.497624 125.336 0.783319 124.549 1.08117C124.444 1.09941 124.389 1.19059 124.334 1.26961C124.34 1.31824 124.346 1.40334 124.346 1.45197C124.887 1.67687 125.465 1.80453 126.012 2.02336C126.308 2.13885 126.4 2.45494 126.529 2.71024L126.572 2.75279C126.615 3.06888 126.584 3.39104 126.597 3.70713C126.578 4.65539 126.615 5.60974 126.572 6.558C124.783 6.558 122.993 6.54584 121.204 6.558C121.173 6.66741 121.228 6.75859 121.345 6.7282C123.276 6.71604 125.201 6.74036 127.132 6.70996C130.003 6.70996 132.869 6.71604 135.74 6.70996L135.784 6.69173C135.913 6.72212 136.042 6.70996 136.177 6.70996C141.379 6.70996 146.581 6.71604 151.79 6.70996C153.425 6.71604 155.067 6.70996 156.709 6.70996C159.415 6.70996 162.126 6.73428 164.832 6.72212C164.912 6.70389 164.937 6.64918 164.906 6.55192ZM132.924 2.92299C133.047 2.58259 133.379 2.3516 133.73 2.27258C134.406 2.11453 135.163 2.71024 135.107 3.40928C135.113 4.09616 134.382 4.65539 133.711 4.49735C133.441 4.40617 133.182 4.26636 133.017 4.0293C132.801 3.70713 132.752 3.27555 132.924 2.92299ZM151.273 2.65553C151.556 2.34552 152.005 2.16924 152.423 2.27866C152.737 2.36984 153.044 2.57043 153.18 2.87436C153.45 3.39712 153.241 4.10224 152.712 4.37578C152.245 4.63108 151.655 4.50951 151.298 4.13871C150.935 3.73145 150.91 3.0628 151.273 2.65553Z" fill="url(#paint1_radial_16_199)" stroke="#FCD109" stroke-width="0.094"/>
<path d="M152.841 9.22326C152.927 9.24149 152.393 8.71594 152.497 8.69162C152.596 8.70378 152.969 8.41754 153.42 8.65108C153.87 8.88462 153.759 9.43115 153.708 9.63381C153.647 9.87501 153.491 10.0289 153.368 10.1505C153.301 10.2052 153.149 10.2903 153.057 10.2842C153.112 9.98637 152.934 9.93774 152.922 9.63381L152.841 9.22326Z" fill="url(#paint2_linear_16_199)" stroke="#FCD109" stroke-width="0.094"/>
<path d="M133.184 9.55279C133.172 9.85672 132.993 9.90535 133.049 10.2032C132.957 10.2093 132.805 10.1242 132.737 10.0695C132.614 9.9479 132.459 9.79399 132.398 9.55279C132.347 9.35019 132.235 8.80366 132.686 8.57006C133.137 8.33646 133.51 8.6227 133.608 8.61061C133.713 8.63492 133.179 9.16048 133.265 9.14224L133.184 9.55279Z" fill="url(#paint3_linear_16_199)" stroke="#FCD109" stroke-width="0.094"/>
<path d="M152.036 13.1172C152.129 13.0378 152.19 13.0378 152.313 13.0378C151.575 14.6183 150.714 16.1987 149.42 17.4292C149.282 17.5514 149.135 17.6646 148.982 17.7683C148.834 17.8755 148.689 17.976 148.544 18.0784C148.403 18.1755 148.262 18.2731 148.125 18.3749C147.775 18.5634 147.467 18.8248 147.08 18.9402C146.373 19.2746 145.611 19.4995 144.842 19.6575C144.541 19.7062 144.233 19.7791 143.926 19.7852C143.544 19.8946 143.139 19.8156 142.751 19.8399C142.536 19.8764 142.345 19.7548 142.136 19.7791C141.955 19.7537 141.774 19.7234 141.594 19.6879C141.412 19.651 141.23 19.6084 141.05 19.5603C138.232 18.691 135.464 16.5634 134.658 13.6861C134.622 13.4924 134.604 13.2957 134.604 13.0986C134.69 13.2688 134.779 13.4378 134.871 13.6052C136.018 16.0772 138.293 18.0223 140.981 18.6088C141.199 18.7072 141.435 18.6727 141.644 18.7578C141.835 18.7578 142.019 18.7517 142.204 18.8125C142.837 18.8246 143.471 18.8186 144.104 18.8186C144.19 18.8247 144.27 18.7821 144.356 18.7639C145.412 18.7285 146.446 18.4439 147.409 18.0123C147.602 17.926 147.791 17.8338 147.978 17.7366C148.141 17.6516 148.301 17.5596 148.456 17.4607C148.608 17.3637 148.756 17.2603 148.899 17.1509C150.038 16.2595 151.022 15.1046 151.69 13.7765C151.817 13.5374 151.933 13.3161 152.036 13.1172Z" fill="#BDA727" stroke="#BDA727" stroke-width="0.094"/>
<path d="M151.034 18.5209C152.86 17.4632 154.975 16.9526 157.078 16.8554C157.761 16.7946 158.45 16.8128 159.126 16.8979C159.569 17.0013 160.024 17.1228 160.374 17.4207C160.196 17.4328 160.024 17.3538 159.846 17.3295C159.341 17.2322 158.819 17.2687 158.308 17.2566C156.826 17.2566 155.332 17.3721 153.899 17.7732C153.149 17.9982 152.399 18.2595 151.716 18.6486C150.536 19.2929 149.472 20.1439 148.611 21.1651C147.074 22.9097 146.17 25.1223 145.733 27.3775C145.524 28.587 145.284 29.7905 145.094 31.0063C144.786 31.0367 144.473 31.0185 144.165 31.0185C142.812 31.0124 141.46 31.0063 140.107 30.9943C139.818 31.0063 139.535 30.9396 139.246 30.9577C136.786 30.9698 134.327 30.9516 131.867 30.9516L131.916 30.9333C133.742 30.7448 135.575 30.532 137.401 30.3558C139.719 30.3437 142.031 30.3496 144.35 30.3558C144.423 30.3437 144.553 30.38 144.565 30.2768C144.756 29.2921 144.94 28.3074 145.131 27.3226C145.395 25.9551 145.813 24.6055 146.459 23.3594C147.473 21.3535 149.078 19.6515 151.034 18.5209Z" fill="#0D69B3" stroke="#0D69B3" stroke-width="0.094"/>
<path d="M153.899 17.7733C155.332 17.3721 156.826 17.2566 158.308 17.2566C158.818 17.2687 159.341 17.2323 159.845 17.3295C160.024 17.3539 160.196 17.4329 160.374 17.4207C160.663 17.6517 160.835 17.9921 160.965 18.3325C161.248 19.141 161.407 19.9798 161.543 20.8247C161.549 21.1651 161.61 21.5481 161.426 21.8581C161.254 22.162 160.909 22.3079 160.583 22.3991C159.397 22.703 158.154 22.4173 156.968 22.703C155.99 22.9097 155.08 23.4446 154.459 24.2166C153.727 25.1162 153.34 26.2345 153.124 27.3532C152.958 28.3501 152.749 29.3469 152.583 30.3499C152.509 30.5748 152.466 30.818 152.423 31.0551C153.585 31.0734 154.748 31.0551 155.91 31.0672C156.353 31.0551 156.795 31.0793 157.238 31.0489C157.484 31.6082 157.429 32.2404 157.349 32.83C157.25 33.4926 157.091 34.149 156.789 34.7569C156.537 35.2736 156.119 35.7477 155.547 35.9301C155.252 36.0456 154.932 36.0213 154.619 36.0213C153.585 36.0213 152.552 36.0334 151.519 36.0213C151.353 36.769 151.243 37.5349 151.095 38.2947C150.825 39.7717 150.56 41.2549 150.29 42.7382C150.283 42.7868 150.277 42.8901 150.277 42.9448V42.9509C147.59 42.9509 144.909 42.9571 142.222 42.9509C142.228 42.9267 142.234 42.884 142.24 42.8597C142.247 42.8293 142.253 42.7625 142.259 42.7261C142.265 42.7747 142.271 42.8659 142.277 42.9084C142.443 42.9267 142.745 43.0117 142.788 42.7748C143.206 40.5378 143.593 38.2887 144.024 36.0517C143.858 36.0152 143.685 36.0152 143.513 36.0456C143.489 36.1307 143.464 36.2157 143.433 36.3008L143.47 36.0273C141.798 36.0211 140.119 36.0273 138.446 36.0211C138.041 36.0091 137.622 36.0211 137.217 35.9725C136.522 35.9421 135.821 35.9665 135.126 35.8995C134.265 35.8995 133.41 35.8206 132.549 35.8206C131.873 35.7537 131.19 35.778 130.508 35.7476C130.065 35.693 129.61 35.7172 129.161 35.699C128.43 35.6199 127.686 35.6748 126.954 35.5956C126.179 35.6018 125.404 35.5348 124.629 35.5166C124.636 35.5106 124.642 35.4862 124.642 35.4802C124.9 35.4862 125.152 35.4679 125.41 35.4619C125.982 35.389 126.56 35.4376 127.132 35.3586C127.729 35.3586 128.319 35.2795 128.915 35.2795C129.444 35.2066 129.979 35.2491 130.508 35.1762C131.129 35.1762 131.738 35.0971 132.359 35.0911C132.869 35.0243 133.386 35.0607 133.896 34.9939C134.493 35 135.083 34.9088 135.679 34.9148C136.264 34.8478 136.86 34.8661 137.444 34.8053C137.389 34.5805 137.346 34.3556 137.297 34.1306C137.254 33.9907 137.081 34.0211 136.971 34.0029C135.636 33.8144 134.308 33.626 132.98 33.4436C133.066 33.3767 133.183 33.4071 133.281 33.3951C134.314 33.3159 135.341 33.2247 136.374 33.1519C136.608 33.1397 136.836 33.0972 137.069 33.0911C136.965 32.775 136.903 32.4286 136.762 32.1367C134.554 31.8024 132.347 31.5046 130.145 31.146C130.717 31.0548 131.295 31.0122 131.867 30.9514C134.327 30.9514 136.786 30.9697 139.246 30.9575C139.535 30.9393 139.818 31.0062 140.107 30.9941C141.46 31.0062 142.813 31.0124 144.165 31.0183C144.473 31.0183 144.786 31.0366 145.094 31.0062C145.285 29.7905 145.524 28.5868 145.733 27.3773C146.17 25.122 147.074 22.9095 148.611 21.165C149.472 20.1438 150.536 19.2927 151.717 18.6484C152.399 18.2596 153.149 17.9982 153.899 17.7733Z" fill="#107BD4" stroke="#107BD4" stroke-width="0.094"/>
<path d="M152.584 30.3496C153.752 30.3558 154.927 30.3435 156.101 30.3558C156.569 30.3558 157.048 30.6111 157.239 31.0486C156.796 31.079 156.353 31.0548 155.911 31.0669C154.748 31.0548 153.586 31.0731 152.424 31.0548C152.467 30.8177 152.51 30.5746 152.584 30.3496ZM143.514 36.0453C143.686 36.0149 143.858 36.0149 144.024 36.0514C143.594 38.2884 143.206 40.5375 142.788 42.7745C142.745 43.0114 142.444 42.9264 142.278 42.9081C142.272 42.8656 142.266 42.7745 142.26 42.7258C142.647 40.5862 143.022 38.4404 143.434 36.3008C143.465 36.2155 143.489 36.1305 143.514 36.0453Z" fill="#0D69B3" stroke="#0D69B3" stroke-width="0.094"/>
<path d="M153.121 9.39361C153.072 9.30243 153.066 9.19302 153.066 9.08968L153.017 9.09576C152.943 8.8283 152.716 8.573 152.42 8.56084C152.199 8.5426 151.922 8.54868 151.793 8.75536C151.547 9.0836 151.664 9.50302 151.652 9.87382C151.652 9.89813 151.658 9.94069 151.658 9.965C151.658 10.2142 151.627 10.4574 151.584 10.7005C151.547 10.7735 151.529 10.8525 151.529 10.9376C151.424 11.509 151.215 12.0743 150.933 12.591C150.877 12.6639 150.834 12.7429 150.816 12.828C150.631 13.1441 150.41 13.4359 150.182 13.7277C150.145 13.7581 150.115 13.7945 150.084 13.831C149.924 14.0255 149.752 14.1896 149.573 14.3598C149.53 14.3842 149.5 14.4145 149.463 14.4389C149.254 14.6395 149.02 14.8279 148.768 14.9799C148.737 14.9981 148.706 15.0224 148.669 15.0467C147.095 16.074 145.183 16.4995 143.32 16.5177C141.739 16.5664 140.147 16.2321 138.72 15.5573C138.696 15.5452 138.634 15.5209 138.609 15.5087C138.37 15.381 138.124 15.2716 137.902 15.1136C137.853 15.0893 137.804 15.0589 137.748 15.0346C137.521 14.9008 137.306 14.7549 137.103 14.5847C137.035 14.524 136.961 14.4753 136.888 14.4206C136.666 14.2443 136.439 14.0559 136.248 13.8432C136.199 13.7884 136.15 13.7398 136.101 13.6912C135.43 13.0043 134.908 12.1655 134.631 11.2537C134.367 10.5303 134.404 9.74009 134.373 8.98026C134.151 8.64594 133.684 8.4575 133.315 8.66418C133.161 8.77359 133.143 8.97419 133.026 9.11399C132.836 11.1199 133.703 13.1198 135.086 14.5665C135.086 14.6151 135.111 14.6455 135.154 14.6638C135.4 14.8887 135.64 15.1197 135.886 15.3385C135.929 15.381 135.978 15.4236 136.033 15.4601C136.279 15.6607 136.543 15.843 136.802 16.0315C136.851 16.0679 136.9 16.0983 136.955 16.1287C137.294 16.3232 137.613 16.5542 137.976 16.6879C138.001 16.7062 138.044 16.7366 138.068 16.7487C139.237 17.3019 140.497 17.6788 141.789 17.8003C141.93 17.8003 142.072 17.8125 142.213 17.8429C142.828 17.8794 143.443 17.8611 144.058 17.849C145.958 17.6848 147.919 17.2289 149.506 16.1226L149.524 16.147C149.574 16.1044 149.617 16.0679 149.666 16.0315C149.918 15.8491 150.164 15.6546 150.41 15.454C150.465 15.4114 150.527 15.3628 150.582 15.3081C150.853 15.0163 151.166 14.7489 151.394 14.4145L151.431 14.4328C151.449 14.4024 151.48 14.3416 151.499 14.3112C151.707 14.0316 151.898 13.7398 152.083 13.448C152.095 13.4298 152.126 13.3994 152.138 13.3812L152.113 13.3569C152.132 13.3326 152.175 13.2839 152.193 13.2596C152.532 12.5788 152.833 11.8676 152.937 11.1139C152.98 11.0956 153.005 11.0592 153.005 11.0166C153.011 10.7735 153.097 10.5425 153.073 10.2993C153.127 10.0015 153.134 9.69754 153.121 9.39361Z" fill="white" stroke="white" stroke-width="0.094"/>
<mask id="mask0_16_199" style="mask-type:luminance" maskUnits="userSpaceOnUse" x="133" y="8" width="21" height="10">
<path d="M153.121 9.39361C153.072 9.30243 153.066 9.19302 153.066 9.08968L153.017 9.09576C152.943 8.8283 152.716 8.573 152.42 8.56084C152.199 8.5426 151.922 8.54868 151.793 8.75536C151.547 9.0836 151.664 9.50302 151.652 9.87382C151.652 9.89813 151.658 9.94069 151.658 9.965C151.658 10.2142 151.627 10.4574 151.584 10.7005C151.547 10.7735 151.529 10.8525 151.529 10.9376C151.424 11.509 151.215 12.0743 150.933 12.591C150.877 12.6639 150.834 12.7429 150.816 12.828C150.631 13.1441 150.41 13.4359 150.182 13.7277C150.145 13.7581 150.115 13.7945 150.084 13.831C149.924 14.0255 149.752 14.1896 149.573 14.3598C149.53 14.3842 149.5 14.4145 149.463 14.4389C149.254 14.6395 149.02 14.8279 148.768 14.9799C148.737 14.9981 148.706 15.0224 148.669 15.0467C147.095 16.074 145.183 16.4995 143.32 16.5177C141.739 16.5664 140.147 16.2321 138.72 15.5573C138.696 15.5452 138.634 15.5209 138.609 15.5087C138.37 15.381 138.124 15.2716 137.902 15.1136C137.853 15.0893 137.804 15.0589 137.748 15.0346C137.521 14.9008 137.306 14.7549 137.103 14.5847C137.035 14.524 136.961 14.4753 136.888 14.4206C136.666 14.2443 136.439 14.0559 136.248 13.8432C136.199 13.7884 136.15 13.7398 136.101 13.6912C135.43 13.0043 134.908 12.1655 134.631 11.2537C134.367 10.5303 134.404 9.74009 134.373 8.98026C134.151 8.64594 133.684 8.4575 133.315 8.66418C133.161 8.77359 133.143 8.97419 133.026 9.11399C132.836 11.1199 133.703 13.1198 135.086 14.5665C135.086 14.6151 135.111 14.6455 135.154 14.6638C135.4 14.8887 135.64 15.1197 135.886 15.3385C135.929 15.381 135.978 15.4236 136.033 15.4601C136.279 15.6607 136.543 15.843 136.802 16.0315C136.851 16.0679 136.9 16.0983 136.955 16.1287C137.294 16.3232 137.613 16.5542 137.976 16.6879C138.001 16.7062 138.044 16.7366 138.068 16.7487C139.237 17.3019 140.497 17.6788 141.789 17.8003C141.93 17.8003 142.072 17.8125 142.213 17.8429C142.828 17.8794 143.443 17.8611 144.058 17.849C145.958 17.6848 147.919 17.2289 149.506 16.1226L149.524 16.147C149.574 16.1044 149.617 16.0679 149.666 16.0315C149.918 15.8491 150.164 15.6546 150.41 15.454C150.465 15.4114 150.527 15.3628 150.582 15.3081C150.853 15.0163 151.166 14.7489 151.394 14.4145L151.431 14.4328C151.449 14.4024 151.48 14.3416 151.499 14.3112C151.707 14.0316 151.898 13.7398 152.083 13.448C152.095 13.4298 152.126 13.3994 152.138 13.3812L152.113 13.3569C152.132 13.3326 152.175 13.2839 152.193 13.2596C152.532 12.5788 152.833 11.8676 152.937 11.1139C152.98 11.0956 153.005 11.0592 153.005 11.0166C153.011 10.7735 153.097 10.5425 153.073 10.2993C153.127 10.0015 153.134 9.69754 153.121 9.39361V9.39361Z" fill="white"/>
</mask>
<g mask="url(#mask0_16_199)">
<path d="M132.554 9.18816C133.052 9.34274 134.197 8.95383 134.521 9.30973M132.841 10.6875C133.318 10.5232 134.343 10.1342 134.767 10.3633M133.333 12.1869C133.564 12.2608 134.019 11.8598 134.245 11.7423C134.581 11.5674 134.926 11.4334 135.3 11.3765M134.071 13.7674C134.309 13.4328 134.594 13.1549 134.938 12.9173C135.279 12.6818 136.212 12.0526 136.612 12.2679M134.767 14.9021C135.038 14.6896 135.148 14.3138 135.432 14.0906C135.775 13.8206 136.301 13.7722 136.653 13.6052M135.925 15.7429C136.006 15.1552 136.61 14.446 137.186 14.4967M136.817 16.5635C137.121 16.5334 137.379 15.8599 137.585 15.6316C137.893 15.2897 138.213 15.1845 138.621 15.0641M138.58 17.293C138.56 16.8677 139.005 15.6484 139.523 15.7125M139.892 17.6982C139.87 17.1956 140.133 15.684 140.753 15.6315M141.245 18.5087C141.127 17.8059 141.135 16.7892 141.695 16.2798M142.925 18.6708C142.863 18.0849 142.274 16.9006 142.925 16.442M144.729 18.2655C144.448 17.9433 144.284 16.6723 144.401 16.3204M146.451 17.9819C146.234 17.5926 145.965 17.2271 145.883 16.7753C145.834 16.5053 145.92 16.1206 145.877 15.9151M147.886 17.374C147.415 17.0699 147.285 15.9521 147.435 15.4694M149.279 16.7661C148.945 16.0567 148.588 15.5066 148.582 14.6994M150.632 15.4694C150.112 15.1237 149.449 14.4953 149.525 13.8079M152.067 14.3752C151.277 14.2022 150.329 13.5036 149.853 12.8758M152.723 13.0379C152.153 12.9171 150.27 12.1911 150.386 11.4575M153.338 11.6196C152.544 11.3319 151.389 11.0733 150.755 10.5255M153.748 10.3228C153.248 10.3651 152.531 10.1258 152.023 10.0391C151.459 9.94288 150.935 9.75487 150.386 9.63384M153.256 9.06658C152.291 9.12366 151.386 8.79742 150.509 8.49927" stroke="#D1D1D1" stroke-width="2"/>
</g>
<path d="M29.8434 11.9892C30.7346 11.8563 31.7601 11.7732 32.5167 12.3216C32.9874 12.6705 33.1555 13.302 33.1219 13.8672C33.1555 14.7979 32.7184 15.7951 31.8779 16.2771C31.1381 16.676 30.2471 16.7091 29.4232 16.626C28.8684 16.5596 28.3136 16.2606 28.0278 15.7619C27.3888 14.316 28.179 12.2718 29.8434 11.9892ZM3.17888 13.0363C3.22924 12.5377 3.68323 12.0889 4.20437 12.1056C8.08818 12.1056 11.955 12.1222 15.8219 12.1056C16.2422 12.0724 16.6962 12.2551 16.8978 12.6208C17.1836 13.1194 16.9315 13.6678 16.8978 14.1831C16.7803 14.881 16.8138 15.8118 15.9901 16.0776C13.1655 16.1607 10.341 16.0776 7.51644 16.1109C7.24747 17.8724 6.9953 19.6175 6.72621 21.3625C6.72621 21.429 6.74312 21.5788 6.74312 21.645C8.81102 21.6285 10.8789 21.645 12.9468 21.6285C13.5185 21.5952 14.1237 22.0774 14.0732 22.6755C14.0229 23.2905 13.8883 23.8888 13.8043 24.5037C13.7369 24.9191 13.4008 25.3014 12.9636 25.3845C10.6603 25.4344 8.32327 25.3347 6.02016 25.4344C5.65017 27.9439 5.21302 30.4534 4.8263 32.963C4.776 33.4617 4.37237 33.8937 3.86802 33.9102C2.9098 33.9269 1.95137 33.9269 0.993162 33.9102C0.371113 33.9269 -0.133306 33.2453 0.0347501 32.6637C1.06061 26.1159 2.11975 19.5845 3.17888 13.0363ZM20.2603 12.1387C21.1346 12.0723 22.0256 12.1222 22.8999 12.1056C23.438 12.0724 23.976 12.4878 24.0263 13.0363C24.0263 13.4683 23.9086 13.9005 23.8582 14.3326C23.152 18.7867 22.4291 23.2408 21.7229 27.6948C21.6221 28.4094 21.4372 29.1739 21.6558 29.9052C21.9079 30.6364 23.0342 30.3206 23.3033 31.085C23.4714 31.7 23.2864 32.3481 23.236 32.9798C23.1856 33.8107 22.2273 33.9934 21.5717 34.1765C20.1427 34.4423 18.4108 34.2429 17.3853 33.0794C16.6455 32.232 16.5951 31.0352 16.7465 29.9717C17.6375 24.3211 18.5285 18.6704 19.4365 13.003C19.487 12.5875 19.8232 12.2053 20.2603 12.1387ZM53.6331 13.0363C53.6834 12.5377 54.1374 12.1056 54.6418 12.1056H57.1973C57.8361 12.0889 58.3575 12.7704 58.2061 13.3686C57.6176 17.0582 57.0125 20.7478 56.424 24.4372C57.3151 24.3043 58.3239 24.1381 58.9459 23.4235C59.9882 22.26 60.8458 20.9141 61.4845 19.5014C61.703 18.9529 61.8208 18.1552 62.5437 18.0554C63.5021 18.0222 64.4771 18.0387 65.4354 18.0554C66.0912 18.0387 66.5787 18.77 66.3602 19.3683C66.108 20.2493 65.6877 21.0635 65.2506 21.8447C64.2754 23.407 63.1996 24.9525 61.7872 26.1823C62.4092 28.0271 63.1995 29.822 63.8887 31.6336C64.0904 32.2319 64.5782 32.9298 64.1241 33.5117C63.6028 34.2096 62.6277 33.8605 61.9048 33.9436C61.1483 33.8605 60.0555 34.2428 59.6351 33.3952C58.8449 31.5836 58.1893 29.7224 57.3822 27.9108C56.9115 27.9273 56.424 27.944 55.9531 27.8942C55.9197 27.9607 55.8523 28.0935 55.8187 28.1601C55.5664 29.822 55.2975 31.484 55.0284 33.1459C54.9275 33.5448 54.6081 33.8939 54.171 33.9271C53.28 33.9604 52.3721 33.9436 51.4642 33.9436C51.0775 33.9436 50.7245 33.6944 50.5563 33.362C50.3882 33.0294 50.489 32.6474 50.5397 32.2817C51.5819 25.8666 52.6074 19.4514 53.6331 13.0363ZM100.355 14.8478C100.473 14.3823 100.926 14.0667 101.397 14.0832C102.07 14.0999 102.759 14.0667 103.448 14.0999C104.003 14.1165 104.44 14.6649 104.373 15.1968C104.272 16.1441 104.037 17.0915 103.97 18.0386C104.625 18.0386 105.298 18.0221 105.953 18.0386C106.542 18.0386 107.029 18.637 106.929 19.202C106.844 19.7174 106.727 20.216 106.643 20.731C106.559 21.1632 106.189 21.5122 105.769 21.5786C104.961 21.6285 104.171 21.5454 103.381 21.6285C103.045 23.8554 102.675 26.0823 102.322 28.3096C102.271 28.8248 102.238 29.4064 102.54 29.8552C102.994 30.4036 103.785 30.2041 104.424 30.2707C104.928 30.4202 105.247 30.9688 105.163 31.4675C105.079 32.0323 105.062 32.5975 104.928 33.1458C104.726 33.7607 104.003 33.8771 103.448 34.0266C101.918 34.4256 100.153 34.4256 98.7914 33.5447C97.5305 32.697 97.3286 31.0517 97.4631 29.6557C97.8161 26.9633 98.3711 24.2876 98.6736 21.5786C98.2029 21.5951 97.6312 21.6617 97.2783 21.2461C96.8748 20.8307 97.0765 20.2157 97.1437 19.7004C97.2447 19.152 97.2278 18.4374 97.8331 18.1382C98.3205 17.9553 98.8755 18.0884 99.3966 18.0219C99.716 16.9584 100.019 15.8948 100.355 14.8478ZM90.8558 20.2325C91.915 19.1854 93.1927 18.3212 94.6554 17.8892C95.2942 17.6066 96.1181 18.1385 96.1014 18.8365C95.9837 19.7506 95.7651 20.6479 95.6137 21.5454C95.5464 21.9942 95.1598 22.3765 94.7058 22.4263C93.0582 22.7087 91.6292 23.6891 90.4859 24.8526C90.2002 25.2018 89.7798 25.5341 89.7294 26.016C89.3764 28.3427 89.0065 30.6695 88.6366 32.9962C88.5862 33.4947 88.1489 33.9769 87.6278 33.9436H85.0722C84.4839 33.9769 83.9627 33.3953 84.03 32.8135C84.7697 28.2098 85.5096 23.6229 86.2324 19.0192C86.266 18.5539 86.6023 18.1052 87.0898 18.0553C87.7119 18.022 88.3339 18.0386 88.9728 18.0386C89.4772 18.0386 89.9479 18.4874 89.9479 19.0026C89.9479 19.7172 89.8807 20.4484 89.8638 21.1797C90.2674 20.9306 90.5196 20.5317 90.8558 20.2325ZM28.0109 18.1218C28.9187 17.9391 29.8602 18.0887 30.7681 18.0387C31.2893 17.9723 31.8441 18.3046 31.9281 18.8199C31.9955 19.2852 31.8608 19.734 31.8104 20.1827C31.1212 24.4541 30.4317 28.7252 29.7592 32.9964C29.7088 33.4786 29.3055 33.9604 28.7842 33.9437C27.8764 33.9437 26.9685 33.9604 26.0439 33.9272C25.4722 33.8606 25.0518 33.2126 25.2032 32.664C25.9262 28.2268 26.6155 23.8058 27.3384 19.3683C27.3721 18.8864 27.5066 18.3212 28.0109 18.1218ZM82.4159 18.338C79.9108 17.8725 77.3555 17.5401 74.8167 17.7894C72.547 18.072 70.2605 19.0859 68.8652 20.9306C66.9317 23.357 66.276 26.6145 66.713 29.6394C66.9485 31.0852 67.5873 32.5477 68.7811 33.4451C69.8906 34.2928 71.387 34.409 72.732 34.193C74.6148 33.8273 76.212 32.631 77.5235 31.3013C77.5907 31.8663 77.4562 32.4314 77.4899 32.9799C77.5235 33.4949 77.9942 33.9769 78.5154 33.9436H80.2304C80.7347 33.9436 81.1551 33.4785 81.1887 32.9964C81.9116 28.4925 82.6345 24.0051 83.3407 19.5179C83.4414 18.9528 82.9877 18.4044 82.4159 18.338ZM77.6918 26.1657C77.0192 27.4122 76.0776 28.5424 75.0184 29.5061C74.4133 30.0048 73.6398 30.52 72.8162 30.3539C72.0091 30.1877 71.6224 29.3568 71.4375 28.642C71.0172 26.7807 71.4039 24.753 72.463 23.141C72.9337 22.393 73.6903 21.828 74.5646 21.5953C75.7918 21.2961 77.0865 21.4457 78.2802 21.7781L78.3474 21.8447C78.1961 23.2905 77.9103 24.7198 77.6918 26.1657ZM49.4132 23.6728C49.3963 22.0108 48.9424 20.2658 47.7656 19.0193C46.9586 18.1385 45.748 17.6898 44.5712 17.7062C42.6209 17.6399 40.7884 18.5873 39.3594 19.8502C39.0398 20.0996 38.8213 20.4653 38.4684 20.6647C38.4684 20.1161 38.5187 19.5677 38.5018 19.0027C38.5187 18.4874 38.0311 18.0387 37.5267 18.0387H35.8118C35.2739 18.0387 34.8367 18.5041 34.8031 19.0192C33.7439 25.6671 32.668 32.3149 31.6088 38.9628C31.4576 39.5777 31.9956 40.2093 32.6345 40.1926C33.5759 40.1761 34.5343 40.2591 35.4589 40.126C36.1987 39.9266 36.1818 39.079 36.2996 38.4641C36.5685 37.0016 36.7535 35.539 36.9216 34.0599C40.2337 34.6914 44.0837 34.2594 46.5551 31.783C48.5725 29.606 49.514 26.5978 49.4132 23.6728ZM44.7057 25.3513C44.6049 26.8803 44.05 28.426 42.9741 29.5394C41.5787 30.8525 39.4602 30.6695 37.7453 30.221C37.7119 30.171 37.6613 30.0713 37.6445 30.0215C37.9135 28.5756 38.048 27.113 38.3843 25.6838C39.3258 24.1549 40.4689 22.6091 42.0997 21.7616C42.705 21.4791 43.5288 21.5456 43.966 22.094C44.7057 23.0081 44.773 24.2379 44.7057 25.3513Z" fill="#107BD4" stroke="#107BD4" stroke-width="0.101"/>
</g>
<defs>
<linearGradient id="paint0_linear_16_199" x1="143.061" y1="7.26923" x2="143.061" y2="42.9972" gradientUnits="userSpaceOnUse">
<stop stop-color="#F7E830"/>
<stop offset="1" stop-color="#FDCB06"/>
</linearGradient>
<radialGradient id="paint1_radial_16_199" cx="0" cy="0" r="1" gradientUnits="userSpaceOnUse" gradientTransform="translate(142.873 23.5646) scale(29.398 29.0606)">
<stop offset="0.596" stop-color="#F29405"/>
<stop offset="0.736" stop-color="#F7D01E"/>
<stop offset="1" stop-color="#FDCB06"/>
</radialGradient>
<linearGradient id="paint2_linear_16_199" x1="153.118" y1="8.55862" x2="153.128" y2="10.2505" gradientUnits="userSpaceOnUse">
<stop stop-color="#FADA1C"/>
<stop offset="1" stop-color="#FDCB06"/>
</linearGradient>
<linearGradient id="paint3_linear_16_199" x1="132.987" y1="8.4776" x2="132.977" y2="10.1695" gradientUnits="userSpaceOnUse">
<stop stop-color="#FADA1C"/>
<stop offset="1" stop-color="#FDCB06"/>
</linearGradient>
<clipPath id="clip0_16_199">
<rect width="165" height="43" fill="white"/>
</clipPath>
</defs>
</svg>
