<svg width="110" height="44" viewBox="0 0 110 44" fill="none" xmlns="http://www.w3.org/2000/svg">
<g clip-path="url(#clip0_16_187)">
<path d="M0 0V3.01037H21.4113V0H0ZM24.4449 0V3.01037H54.957C54.957 3.01037 51.8404 0 47.7125 0H24.4449ZM60.9425 0V3.01037H79.4019L78.3062 0H60.9425ZM92.6363 0L91.5406 3.01037H109.832V0H92.6363ZM0 5.85442V8.86479H21.4113V5.85442H0ZM24.4449 5.85871V8.8649H58.4976C58.4976 8.8649 58.0999 6.54797 57.4061 5.85871H24.4449ZM60.9425 5.85871V8.8649H81.4257L80.4117 5.85871H60.9425ZM90.4449 5.85871L89.4308 8.8649H109.832V5.85871H90.4449ZM6.15307 11.7088V14.7235H15.4257V11.7088H6.15307ZM30.598 11.7088V14.7235H39.8707V11.7088H30.598ZM48.8898 11.7088V14.7235H58.1625C58.1625 14.7235 58.7512 13.1315 58.7512 11.7088H48.8898ZM67.0957 11.7088V14.7235H83.5355L82.4398 11.7088H67.0957ZM88.4254 11.7088L87.3254 14.7235H103.847V11.7088H88.4254ZM6.15307 17.5677V20.578H15.4257V17.5677H6.15307ZM30.598 17.5677V20.578H54.2824C54.2824 20.578 56.2637 19.0334 56.8949 17.5677H30.598ZM67.0957 17.5677V20.578H76.3684V18.9023L76.9571 20.578H93.9426L94.5743 18.9023V20.578H103.847V17.5677H86.4402L85.5164 20.1175L84.5882 17.5677H67.0957ZM6.15307 23.4221V26.4324H15.4257V23.4221H6.15307ZM30.598 23.4221V26.4324H56.8949C56.2636 24.9715 54.2824 23.4221 54.2824 23.4221H30.598ZM67.0957 23.4221V26.4324H76.3684V23.4221H67.0957ZM78.0527 23.4221L79.1742 26.4324H91.9101L92.9757 23.4221H78.0527ZM94.5742 23.4221V26.4324H103.847V23.4221H94.5742ZM6.15307 29.2765V32.2868H15.4257V29.2765H6.15307ZM30.598 29.2765V32.2868H39.8707V29.2765H30.598ZM48.8898 29.2765V32.2868H58.7511C58.7511 30.8661 58.1624 29.2765 58.1624 29.2765H48.8898ZM67.0957 29.2765V32.2868H76.3684V29.2765H67.0957ZM80.1582 29.2765L81.2453 32.2868H89.7832L90.8789 29.2765H80.1582ZM94.5742 29.2765V32.2868H103.847V29.2765H94.5742ZM0.16753 35.1309V38.1456H21.5788V35.1309H0.16753ZM24.4449 35.1309V38.1456H57.4061C58.0999 37.4553 58.4976 35.1309 58.4976 35.1309H24.4449ZM61.1102 35.1309V38.1456H76.3684V35.1309H61.1102ZM82.2679 35.1309L83.3851 38.1456H87.7292L88.7776 35.1309H82.2679ZM94.5742 35.1309V38.1456H110V35.1309H94.5742ZM0.16753 40.9896V44H21.5788V40.9896H0.16753ZM24.4449 40.9896V43.9957H47.7125C51.8404 43.9957 54.957 40.9896 54.957 40.9896H24.4449ZM61.1102 40.9896V44H76.3684V40.9896H61.1102ZM84.3863 40.9896L85.4605 43.9915L85.6453 43.9957L86.7368 40.9896H84.3863ZM94.5742 40.9896V44H110V40.9896H94.5742Z" fill="#1F70C1"/>
</g>
<defs>
<clipPath id="clip0_16_187">
<rect width="110" height="44" fill="white"/>
</clipPath>
</defs>
</svg>
