<svg width="120" height="47" viewBox="0 0 120 47" fill="none" xmlns="http://www.w3.org/2000/svg">
<g clip-path="url(#clip0_16_196)">
<path fill-rule="evenodd" clip-rule="evenodd" d="M0.54541 5.31292V0.641144H5.13469V38.9889H0.54541V34.3171V5.31292ZM47.3152 25.0707C47.4127 32.0784 51.8068 37.6259 56.9816 37.5288C62.1565 37.4316 66.3551 31.6892 66.2576 24.7787C66.1599 17.771 61.7658 12.2234 56.5909 12.3206C51.416 12.3206 47.2175 18.063 47.3152 25.0707ZM85.4927 16.6032C85.5902 16.8952 85.2972 16.2137 85.2972 16.2137L85.4927 16.6032ZM88.6172 45.5099C88.8124 45.1205 89.1054 44.6339 89.4958 43.9527L88.6172 45.5099ZM88.8124 14.1699C88.9099 14.3645 88.9099 14.4619 89.0076 14.6565L90.5698 18.4525L88.8124 14.1699ZM69.5773 33.3436C72.4089 35.9715 74.9474 37.2367 78.2671 37.2367C81.5868 37.2367 84.6138 35.5823 84.6138 32.4678C84.6138 29.8399 82.2705 28.2826 78.0719 26.5308C74.557 24.9735 71.9204 23.9029 70.5537 21.6641C70.7489 22.6374 70.8466 23.6109 70.8466 24.6815C70.8466 33.2464 64.6951 40.157 56.9813 40.157C49.3656 40.157 43.1167 33.2464 43.1167 24.6815C43.1167 19.5228 45.3623 14.9485 48.8775 12.126H39.504V38.9889H35.3055V12.2234H31.5951V9.40065H35.3055C35.7936 3.75566 39.3088 0.543701 44.093 0.543701C47.2175 0.543701 48.9752 0.835725 49.9515 1.32233V5.60525H49.8541C48.3893 4.24257 46.8271 3.17192 43.4096 3.17192C40.6755 3.17192 38.8203 5.41067 39.504 9.40095H55.029C55.7124 9.30382 56.2983 9.20668 56.9816 9.20668C62.5472 9.20668 67.3314 12.9049 69.4796 18.1608V17.2847C69.4796 11.7368 74.7522 9.40126 80.3178 9.40126H80.9034C82.8564 9.40126 85.5902 9.985 87.3479 10.4716L90.6673 18.5499L95.354 30.0348L95.9402 31.8841L96.5259 30.0348L102.482 15.3383C103.556 11.2502 107.852 9.4984 112.637 9.59584C114.98 9.59584 116.738 9.88756 118.886 10.5691V15.0459C116.249 13.1967 114.394 12.0286 111.465 12.0286C108.926 12.0286 105.802 13.1967 105.802 16.9924C105.704 19.8149 107.462 20.3989 112.539 22.9294C116.64 24.6815 120.448 26.7254 120.545 31.2997C120.545 38.9889 113.027 40.2541 109.317 40.3513C105.997 40.3513 103.068 39.5726 101.408 38.1128V33.0516L101.701 33.2464C104.728 36.0689 107.266 37.5288 110.684 37.5288C114.003 37.5288 117.03 35.8744 117.03 32.7598C117.03 30.1319 114.687 28.5747 110.489 26.8225C106.485 25.071 103.849 23.9029 102.775 21.0801C101.115 25.0707 93.5969 43.5632 91.8391 47.4564H87.6406L89.4958 43.9527C90.4724 41.9085 92.0346 38.794 93.3039 35.7769L85.4927 16.7978C85.3953 16.7006 85.2972 16.4083 85.0046 15.8246C84.4186 14.4616 83.8327 13.1967 82.1727 12.5152C81.2941 12.2234 80.3178 12.0286 79.146 12.0286C76.6074 12.0286 73.2874 13.1967 73.2874 16.9924C73.19 19.8149 75.1426 20.3989 80.2201 22.9294C84.3209 24.7787 88.1287 26.7254 88.2265 31.2997C88.2265 38.9889 80.7082 40.2541 76.9978 40.3513C74.0686 40.3513 71.4325 39.6701 69.6748 38.5997V33.3436M13.727 9.59554L13.8245 12.9043V13.0992C13.9219 13.0021 13.9219 12.8072 14.02 12.7101C15.6797 10.8608 17.8278 9.10863 22.905 9.10863C27.7872 9.10863 30.9117 13.1967 31.0091 15.8246V38.8914H26.8109V17.7713C26.8109 14.5593 23.979 12.2234 20.4642 12.2234C17.5349 12.2234 13.8245 14.8511 13.727 17.479V38.9889H9.52846V9.59554H13.727Z" fill="#3781C2"/>
</g>
<defs>
<clipPath id="clip0_16_196">
<rect width="120" height="47" fill="white"/>
</clipPath>
</defs>
</svg>
