<svg width="150" height="43" viewBox="0 0 150 43" fill="none" xmlns="http://www.w3.org/2000/svg">
<path d="M3.01489 38.1105C3.42213 38.3176 4.0473 38.5257 4.69174 38.5257C5.38611 38.5257 5.75367 38.2395 5.75367 37.8042C5.75367 37.388 5.43604 37.1516 4.63271 36.8644C3.52093 36.4767 2.79705 35.8658 2.79705 34.8957C2.79705 33.757 3.75001 32.8873 5.32708 32.8873C6.08146 32.8873 6.63744 33.0456 7.03344 33.2253L6.69647 34.441C6.42869 34.3121 5.95225 34.1233 5.29756 34.1233C4.64189 34.1233 4.32525 34.4217 4.32525 34.7657C4.32525 35.1918 4.70199 35.3797 5.56534 35.7064C6.74631 36.1417 7.30229 36.7546 7.30229 37.6934C7.30229 38.8117 6.43894 39.7717 4.60221 39.7717C3.83865 39.7717 3.08418 39.5657 2.70752 39.3566L3.01489 38.1105ZM12.402 38.4859C12.402 38.9517 12.4224 39.3961 12.4712 39.662H11.112L11.0235 39.178H10.9929C10.6752 39.5656 10.1794 39.7716 9.60414 39.7716C8.62166 39.7716 8.03625 39.0602 8.03625 38.288C8.03625 37.0327 9.16738 36.4288 10.8839 36.439V36.3691C10.8839 36.1123 10.7444 35.747 10.0012 35.747C9.50337 35.747 8.97905 35.9144 8.66134 36.1124L8.38339 35.1432C8.72037 34.9555 9.38522 34.717 10.269 34.717C11.8857 34.717 12.4019 35.6679 12.4019 36.8045V38.4859H12.402ZM10.9339 37.3777C10.1398 37.3686 9.52486 37.5563 9.52486 38.1399C9.52486 38.5255 9.78248 38.7142 10.1204 38.7142C10.4972 38.7142 10.8046 38.4667 10.9044 38.1601C10.9243 38.0756 10.9343 37.9891 10.9339 37.9024V37.3777ZM14.5953 34.8266L15.25 37.0714C15.3638 37.4585 15.4566 37.8515 15.5279 38.2486H15.5574C15.6369 37.8529 15.7162 37.4875 15.8262 37.0714L16.4503 34.8266H18.0386L16.2324 39.6623H14.7246L12.9581 34.8266H14.5953ZM19.7465 37.7245C19.7943 38.3466 20.4102 38.645 21.1148 38.645C21.631 38.645 22.0474 38.5739 22.4547 38.447L22.6531 39.466C22.1563 39.6628 21.5515 39.7714 20.8959 39.7714C19.2485 39.7714 18.3057 38.8124 18.3057 37.2983C18.3057 36.0734 19.0704 34.7166 20.7574 34.7166C22.3253 34.7166 22.9209 35.9334 22.9209 37.1298C22.9209 37.3876 22.8904 37.6159 22.8711 37.7245H19.7465ZM21.522 36.6954C21.522 36.3301 21.3632 35.7162 20.6679 35.7162C20.0336 35.7162 19.775 36.2905 19.7352 36.6954H21.522ZM25.8285 36.3688C25.8285 35.766 25.8082 35.2516 25.7878 34.8264H27.0583L27.1275 35.4789H27.1581C27.3669 35.1725 27.7935 34.7168 28.6273 34.7168C29.2514 34.7168 29.7483 35.0334 29.9569 35.5378H29.9763C30.1555 35.28 30.3733 35.0943 30.6014 34.9553C30.8691 34.796 31.1674 34.7168 31.5248 34.7168C32.4564 34.7168 33.1609 35.3703 33.1609 36.8145V39.662H31.6928V37.0327C31.6928 36.3304 31.4647 35.9244 30.9791 35.9244C30.6309 35.9244 30.3835 36.1619 30.2837 36.4491C30.244 36.5577 30.2236 36.716 30.2236 36.8337V39.662H28.7555V36.9523C28.7555 36.3405 28.5366 35.9243 28.0612 35.9243C27.6742 35.9243 27.4462 36.2217 27.3566 36.4673C27.3067 36.586 27.2965 36.725 27.2965 36.8438V39.6619H25.8285V36.3688ZM39.1548 37.1902C39.1548 38.9601 37.8944 39.772 36.5953 39.772C35.1761 39.772 34.0835 38.8424 34.0835 37.2795C34.0835 35.7167 35.1169 34.7171 36.6737 34.7171C38.1622 34.7171 39.1548 35.737 39.1548 37.1902ZM35.6423 37.2399C35.6423 38.0711 35.9895 38.6942 36.635 38.6942C37.2194 38.6942 37.5971 38.1107 37.5971 37.2399C37.5971 36.5174 37.3192 35.7867 36.635 35.7867C35.9101 35.7867 35.6423 36.5266 35.6423 37.2399ZM40.0875 36.3688C40.0875 35.766 40.0681 35.2516 40.0488 34.8264H41.3581L41.4273 35.488H41.4568C41.6563 35.1815 42.1521 34.7167 42.9555 34.7167C43.9481 34.7167 44.6924 35.3702 44.6924 36.794V39.6619H43.1836V36.9828C43.1836 36.3597 42.9646 35.9335 42.42 35.9335C42.0026 35.9335 41.7551 36.2217 41.6564 36.4977C41.6157 36.5962 41.5963 36.7362 41.5963 36.8742V39.6619H40.0875V36.3688ZM47.0633 37.7245C47.1131 38.3466 47.7281 38.645 48.4336 38.645C48.9499 38.645 49.3663 38.5739 49.7725 38.447L49.972 39.466C49.4752 39.6628 48.8694 39.7714 48.2147 39.7714C46.5674 39.7714 45.6246 38.8124 45.6246 37.2983C45.6246 36.0734 46.3892 34.7166 48.0762 34.7166C49.6441 34.7166 50.2387 35.9334 50.2387 37.1298C50.2387 37.3876 50.2102 37.6159 50.1899 37.7245H47.0633ZM48.8398 36.6954C48.8398 36.3301 48.682 35.7162 47.9866 35.7162C47.3513 35.7162 47.0938 36.2905 47.054 36.6954H48.8398ZM52.2141 34.8266L52.938 37.2014C53.0175 37.4876 53.1171 37.8437 53.1763 38.1005H53.2058C53.276 37.8437 53.3544 37.4784 53.4247 37.2014L54.0203 34.8266H55.6381L54.506 38.0112C53.8116 39.9302 53.3453 40.7014 52.8006 41.1855C52.2732 41.6411 51.7183 41.7994 51.3406 41.8482L51.023 40.5736C51.2124 40.5432 51.4496 40.4549 51.6777 40.3168C51.9067 40.1971 52.1541 39.9596 52.3038 39.712C52.3527 39.643 52.3833 39.5659 52.3833 39.4948C52.3833 39.4461 52.3731 39.367 52.313 39.2483L50.5374 34.8266H52.2141ZM57.0334 39.7715C56.5264 39.7715 56.1599 39.3869 56.1599 38.8613C56.1599 38.3285 56.5264 37.9429 57.0528 37.9429C57.5791 37.9429 57.9365 38.3174 57.9365 38.8613C57.9365 39.3869 57.5791 39.7715 57.0426 39.7715H57.0334ZM61.3035 32.9956H62.8215V38.3975H65.4819V39.6619H61.3035V32.9956ZM68.0814 33.4812C68.0814 33.8973 67.7638 34.2342 67.2679 34.2342C66.7904 34.2342 66.4738 33.8973 66.484 33.4812C66.4738 33.0459 66.7904 32.7211 67.277 32.7211C67.7637 32.7211 68.0713 33.0459 68.0814 33.4812ZM66.5227 39.6625V34.8269H68.0315V39.6624H66.5227V39.6625ZM70.562 34.8266L71.2166 37.0714C71.3347 37.4784 71.4253 37.8629 71.4945 38.2486H71.524C71.6024 37.8529 71.6829 37.4875 71.7928 37.0714L72.4179 34.8266H74.0062L72.2 39.6623H70.6902L68.9248 34.8266H70.562ZM75.7129 37.7245C75.7628 38.3466 76.3778 38.645 77.0813 38.645C77.5985 38.645 78.0149 38.5739 78.4212 38.447L78.6197 39.466C78.1239 39.6628 77.5181 39.7714 76.8645 39.7714C75.2171 39.7714 74.2733 38.8124 74.2733 37.2983C74.2733 36.0734 75.038 34.7166 76.725 34.7166C78.2929 34.7166 78.8885 35.9334 78.8885 37.1298C78.8885 37.3876 78.858 37.6159 78.8366 37.7245H75.7129ZM77.4895 36.6954C77.4895 36.3301 77.3307 35.7162 76.6343 35.7162C75.999 35.7162 75.7424 36.2905 75.7037 36.6954H77.4895ZM81.7953 32.6409H83.3032V35.4002H83.3235C83.6116 34.9841 84.1186 34.7172 84.7927 34.7172C85.9533 34.7172 86.8076 35.6772 86.7963 37.1608C86.7963 38.9013 85.6856 39.771 84.5748 39.771C84.0097 39.771 83.4619 39.566 83.1148 38.9906H83.0944L83.0354 39.6624H81.7556C81.775 39.3468 81.7953 38.7633 81.7953 38.2193V32.6409ZM83.3032 37.6053C83.3032 37.7038 83.3134 37.7941 83.3327 37.8733C83.4315 38.2772 83.7796 38.5847 84.2175 38.5847C84.8619 38.5847 85.259 38.0905 85.259 37.2198C85.259 36.4678 84.9209 35.8752 84.2175 35.8752C83.8091 35.8752 83.4314 36.1806 83.3327 36.617C83.3127 36.7083 83.3028 36.8016 83.3032 36.8951V37.6053ZM88.9211 37.7245C88.971 38.3466 89.586 38.645 90.2895 38.645C90.8057 38.645 91.2221 38.5739 91.6294 38.447L91.828 39.466C91.3322 39.6628 90.7254 39.7714 90.0707 39.7714C88.4244 39.7714 87.4816 38.8124 87.4816 37.2983C87.4816 36.0734 88.2463 34.7166 89.9333 34.7166C91.5012 34.7166 92.0957 35.9334 92.0957 37.1298C92.0957 37.3876 92.0662 37.6159 92.0469 37.7245H88.9211ZM90.6958 36.6954C90.6958 36.3301 90.5359 35.7162 89.8446 35.7162C89.2093 35.7162 88.9507 36.2905 88.911 36.6954H90.6958ZM94.8834 33.5107V34.8269H95.9666V35.933H94.8834V37.6846C94.8834 38.2691 95.0229 38.535 95.479 38.535C95.6877 38.535 95.7783 38.5259 95.927 38.4955L95.9361 39.6341C95.7376 39.7113 95.3803 39.7711 94.9526 39.7711C94.467 39.7711 94.0607 39.5946 93.8224 39.3469C93.5445 39.0598 93.405 38.5949 93.405 37.913V35.9331H92.7606V34.827H93.405V33.9167L94.8834 33.5107ZM98.7247 33.5107V34.8269H99.8049V35.933H98.7247V37.6846C98.7247 38.2691 98.8641 38.535 99.3182 38.535C99.5269 38.535 99.6165 38.5259 99.7662 38.4955L99.7754 39.6341C99.5768 39.7113 99.2215 39.7711 98.7929 39.7711C98.3083 39.7711 97.9 39.5946 97.6618 39.3469C97.3848 39.0598 97.2453 38.5949 97.2453 37.913V35.9331H96.5998V34.827H97.2453V33.9167L98.7247 33.5107ZM102.038 37.7245C102.087 38.3466 102.703 38.645 103.41 38.645C103.924 38.645 104.341 38.5739 104.747 38.447L104.944 39.466C104.45 39.6628 103.846 39.7714 103.19 39.7714C101.543 39.7714 100.6 38.8124 100.6 37.2983C100.6 36.0734 101.365 34.7166 103.052 34.7166C104.617 34.7166 105.215 35.9334 105.215 37.1298C105.215 37.3876 105.185 37.6159 105.164 37.7245H102.038ZM103.815 36.6954C103.815 36.3301 103.656 35.7162 102.962 35.7162C102.326 35.7162 102.068 36.2905 102.027 36.6954H103.815ZM106.314 36.4182C106.314 35.7058 106.296 35.2421 106.277 34.827H107.577L107.627 35.717H107.666C107.914 35.0127 108.508 34.7164 108.975 34.7164C109.113 34.7164 109.183 34.7164 109.292 34.7367V36.1614C109.183 36.1311 109.054 36.1127 108.885 36.1127C108.329 36.1127 107.953 36.4091 107.855 36.8738C107.835 36.9733 107.825 37.0919 107.825 37.2107V39.6625H106.314V36.4182H106.314ZM110.845 39.7715C110.339 39.7715 109.973 39.3869 109.973 38.8613C109.973 38.3285 110.339 37.9429 110.865 37.9429C111.39 37.9429 111.748 38.3174 111.748 38.8613C111.748 39.3869 111.39 39.7715 110.855 39.7715H110.845Z" fill="#0071CE"/>
<path d="M132.166 11.9962C133.004 11.9962 133.693 11.5629 133.786 11.0017L134.615 1.67852C134.615 0.75709 133.531 0 132.169 0C130.808 0 129.727 0.75709 129.727 1.67852L130.553 11.0017C130.644 11.5629 131.334 11.9962 132.169 11.9962H132.166ZM127.11 14.9089C127.531 14.1864 127.498 13.3746 127.055 13.0143L119.367 7.63987C118.569 7.17813 117.37 7.7332 116.689 8.90936C116.007 10.0836 116.128 11.3957 116.926 11.8554L125.438 15.8071C125.971 16.0039 126.696 15.6255 127.113 14.904L127.11 14.9089ZM137.225 14.9038C137.645 15.6254 138.366 16.0039 138.899 15.807L147.412 11.8553C148.214 11.3956 148.329 10.0834 147.652 8.90927C146.969 7.73311 145.767 7.17795 144.97 7.63978L137.282 13.0142C136.842 13.3746 136.81 14.1864 137.228 14.9089L137.225 14.9038ZM132.166 23.6413C133.004 23.6413 133.693 24.0727 133.786 24.6339L134.615 33.956C134.615 34.8795 133.531 35.6345 132.169 35.6345C130.808 35.6345 129.727 34.8795 129.727 33.956L130.553 24.6339C130.644 24.0727 131.334 23.6413 132.169 23.6413H132.166ZM137.225 20.7298C137.645 20.0063 138.366 19.6307 138.899 19.8306L147.412 23.7773C148.214 24.2391 148.329 25.5522 147.652 26.7274C146.969 27.8994 145.767 28.4566 144.97 27.9969L137.282 22.6265C136.842 22.2612 136.81 21.4493 137.228 20.7278L137.225 20.7298ZM127.11 20.7282C127.531 21.4499 127.498 22.2617 127.055 22.626L119.367 27.9964C118.569 28.4561 117.37 27.899 116.689 26.7268C116.007 25.5517 116.128 24.2395 116.926 23.7768L125.438 19.8302C125.971 19.6302 126.696 20.0067 127.114 20.7303L127.11 20.7282Z" fill="#FDBB30"/>
<path d="M87.8812 18.8896C87.8812 15.3691 86.3734 12.2719 81.2747 12.2719C78.6571 12.2719 76.5791 13.0047 75.4459 13.6572L76.2757 16.4865C77.3111 15.835 78.9635 15.2961 80.5263 15.2961C83.1124 15.289 83.5359 16.7544 83.5359 17.6941V17.9174C77.8976 17.9083 74.3351 19.8537 74.3351 23.8186C74.3351 26.2389 76.1494 28.5071 79.3046 28.5071C81.2442 28.5071 82.8671 27.7358 83.8383 26.4997H83.934C83.934 26.4997 84.5785 29.1849 88.1277 28.1579C87.9414 27.0395 87.8813 25.8482 87.8813 24.4143L87.8812 18.8896ZM83.6724 22.6078C83.6724 22.894 83.6469 23.1904 83.5675 23.4492C83.2417 24.5249 82.1228 25.4352 80.7249 25.4352C79.5581 25.4352 78.6326 24.7756 78.6326 23.3802C78.6326 21.246 80.9896 20.6555 83.6724 20.6696V22.6078ZM0.0483398 7.47796C0.0483398 7.47796 3.73189 22.5237 4.31934 24.9653C5.00551 27.8159 6.24257 28.8653 9.80698 28.1579L12.107 18.8287C12.6893 16.5118 13.0813 14.8597 13.456 12.5033H13.5222C13.7849 14.8831 14.1606 16.519 14.6401 18.8368C14.6401 18.8368 15.5758 23.0716 16.0553 25.2961C16.537 27.5196 17.8747 28.92 21.3659 28.1579L26.8465 7.47787H22.4218L20.5504 16.4185C20.0475 19.0205 19.5914 21.0542 19.2391 23.435H19.1769C18.8562 21.0775 18.45 19.125 17.9379 16.59L15.9892 7.47787H11.3791L9.29604 16.3607C8.70555 19.0591 8.15269 21.2389 7.80145 23.5384H7.73832C7.37896 21.3727 6.8994 18.6338 6.38114 16.0206C6.38114 16.0206 5.1431 9.66781 4.70839 7.47778H0.0483398L0.0483398 7.47796ZM39.4221 18.8896C39.4221 15.3691 37.9133 12.2719 32.8165 12.2719C30.198 12.2719 28.1199 13.0047 26.9868 13.6572L27.8155 16.4865C28.853 15.835 30.5034 15.2961 32.0662 15.2961C34.6543 15.289 35.0778 16.7544 35.0778 17.6941V17.9174C29.4384 17.9083 25.8761 19.8537 25.8761 23.8186C25.8761 26.2389 27.6903 28.5071 30.8425 28.5071C32.7841 28.5071 34.4069 27.7358 35.3803 26.4997H35.475C35.475 26.4997 36.1194 29.1849 39.6687 28.1579C39.4823 27.0395 39.4223 25.8482 39.4223 24.4143V18.8896H39.4221ZM35.2132 22.6078C35.2132 22.894 35.1888 23.1904 35.1083 23.4492C34.7825 24.5249 33.6636 25.4352 32.2657 25.4352C31.1 25.4352 30.1735 24.7756 30.1735 23.3802C30.1735 21.246 32.5305 20.6555 35.2133 20.6696L35.2132 22.6078ZM46.4447 23.7669V7.47805H42.2317V28.158H46.4447V23.7669ZM101.566 7.47796V22.7338C101.566 24.8365 101.963 26.31 102.814 27.2102C103.556 27.9977 104.778 28.5072 106.244 28.5072C107.489 28.5072 108.715 28.2717 109.292 28.0576L109.238 24.7766C108.808 24.8812 108.313 24.9654 107.637 24.9654C106.202 24.9654 105.721 24.0491 105.721 22.1615V16.3252H109.39V12.3685H105.721V7.47796H101.566ZM90.6906 12.6223V28.1582H95.037V20.2031C95.037 19.7739 95.0624 19.3993 95.1306 19.0563C95.4523 17.3901 96.7311 16.3244 98.5668 16.3244C99.0697 16.3244 99.4301 16.3792 99.8212 16.436V12.3676C99.4934 12.3027 99.2704 12.2722 98.8631 12.2722C97.2413 12.2722 95.3964 13.3155 94.6216 15.5531H94.5036V12.6223H90.6906ZM49.3954 12.6223V28.1582H53.6308V19.0472C53.6308 18.6199 53.6797 18.1683 53.8294 17.7756C54.1806 16.8581 55.0359 15.7855 56.4032 15.7855C58.1126 15.7855 58.9119 17.2256 58.9119 19.304V28.1582H63.1432V18.9366C63.1432 18.5286 63.1992 18.0385 63.3193 17.6772C63.6675 16.6339 64.5899 15.7855 65.8606 15.7855C67.5934 15.7855 68.4242 17.2002 68.4242 19.6459V28.1582H72.6586V19.0076C72.6586 14.1822 70.2008 12.2722 67.4254 12.2722C66.1966 12.2722 65.2273 12.5787 64.3497 13.1155C63.6126 13.5661 62.9528 14.2074 62.3755 15.0507H62.3134C61.6435 13.3763 60.0695 12.2722 58.018 12.2722C55.3821 12.2722 54.197 13.6036 53.4782 14.7332H53.4161V12.6223H49.3954Z" fill="#0071CE"/>
<path d="M149.214 27.2134C149.63 27.2134 149.951 27.5351 149.951 27.9349C149.951 28.3449 149.63 28.6615 149.21 28.6615C148.795 28.6615 148.464 28.3449 148.464 27.9349C148.464 27.5351 148.795 27.2134 149.21 27.2134H149.214ZM149.205 27.3585C148.887 27.3585 148.648 27.6183 148.648 27.9349C148.648 28.2567 148.887 28.5124 149.214 28.5124C149.532 28.5164 149.766 28.2567 149.766 27.9349C149.766 27.6183 149.532 27.3585 149.21 27.3585H149.205ZM149.095 28.3094H148.927V27.5918C149.019 27.5739 149.112 27.565 149.205 27.5654C149.343 27.5654 149.404 27.5878 149.457 27.6223C149.496 27.6538 149.528 27.7106 149.528 27.7765C149.528 27.8598 149.466 27.9217 149.377 27.9481V27.9571C149.448 27.9795 149.488 28.0363 149.51 28.1328C149.532 28.2434 149.545 28.287 149.563 28.3094H149.382C149.36 28.283 149.347 28.221 149.324 28.1378C149.311 28.0586 149.267 28.0231 149.175 28.0231H149.095V28.3094ZM149.099 27.9044H149.179C149.271 27.9044 149.347 27.874 149.347 27.7989C149.347 27.733 149.298 27.6883 149.192 27.6883C149.148 27.6883 149.116 27.6933 149.099 27.6973L149.099 27.9044Z" fill="#FDBB30"/>
</svg>
