<svg width="135" height="87" viewBox="0 0 135 87" fill="none" xmlns="http://www.w3.org/2000/svg">
<path d="M112.507 34.138C113.146 36.484 115.546 37.8653 117.902 37.2514C120.258 36.6156 121.645 34.2257 121.029 31.8797C120.39 29.5337 117.99 28.1524 115.634 28.7663C113.278 29.4021 111.891 31.8139 112.507 34.138ZM106.518 38.852C108.125 38.4135 109.072 36.791 108.654 35.1904C108.213 33.5899 106.584 32.6471 104.977 33.0637C103.369 33.5022 102.422 35.1246 102.841 36.7252C103.259 38.3258 104.911 39.2685 106.518 38.852ZM97.6883 40.3867C98.8553 40.0798 99.5599 38.8739 99.2516 37.6899C98.9434 36.5279 97.7323 35.8263 96.5433 36.1332C95.3763 36.4402 94.6716 37.6461 94.9799 38.83C95.2882 39.9921 96.4992 40.6937 97.6883 40.3867Z" fill="#2B4C87"/>
<path d="M90.7959 41.3952C91.5446 41.1979 91.985 40.4305 91.7868 39.685C91.5886 38.9395 90.818 38.501 90.0693 38.6984C89.3207 38.8957 88.8803 39.6631 89.0784 40.4085C89.2766 41.154 90.0473 41.5925 90.7959 41.3952Z" fill="#2E4E88"/>
<path d="M109.226 25.2362C110.327 27.1437 112.793 27.8014 114.709 26.7052C116.625 25.6089 117.285 23.1533 116.184 21.2457C115.083 19.3382 112.617 18.6805 110.702 19.7767C108.764 20.8949 108.125 23.3287 109.226 25.2362ZM100.375 30.3229C101.145 31.6603 102.863 32.1207 104.206 31.3534C105.549 30.586 106.011 28.8758 105.241 27.5383C104.47 26.2009 102.753 25.7405 101.409 26.5078C100.044 27.2752 99.5819 28.9854 100.375 30.3229ZM94.0551 31.6384C93.0862 32.1865 92.778 33.4143 93.3285 34.3571C93.8789 35.3218 95.112 35.6288 96.0588 35.0807C97.0277 34.5325 97.3359 33.3047 96.7855 32.3619C96.257 31.4191 95.0239 31.0902 94.0551 31.6384ZM88.4182 35.6946C87.8016 36.0454 87.5815 36.8347 87.9338 37.4705C88.2861 38.0844 89.1008 38.3037 89.7173 37.9529C90.3339 37.6021 90.554 36.7908 90.2017 36.1769C89.8494 35.5411 89.0567 35.3438 88.4182 35.6946Z" fill="#1E3E70"/>
<path d="M108.764 17.3869C110.173 15.9837 110.173 13.7034 108.764 12.3002C107.354 10.897 105.064 10.897 103.655 12.3002C102.246 13.7034 102.246 15.9837 103.655 17.3869C105.064 18.7901 107.354 18.7901 108.764 17.3869ZM99.9781 21.0704C98.9652 20.0618 97.3138 20.0618 96.3009 21.0704C95.288 22.0789 95.288 23.7234 96.3009 24.7319C97.3138 25.7405 98.9652 25.7405 99.9781 24.7319C100.991 23.7234 100.991 22.0789 99.9781 21.0704ZM90.5539 27.9111C89.8493 28.6127 89.8493 29.7528 90.5539 30.4544C91.2585 31.1561 92.4035 31.1561 93.1081 30.4544C93.8127 29.7528 93.8127 28.6127 93.1081 27.9111C92.4035 27.2095 91.2585 27.2095 90.5539 27.9111ZM86.084 34.9053C86.5464 35.3657 87.3171 35.3657 87.7795 34.9053C88.2419 34.4449 88.2419 33.6775 87.7795 33.2171C87.3171 32.7566 86.5464 32.7566 86.084 33.2171C85.5996 33.6775 85.5996 34.4229 86.084 34.9053Z" fill="#184D89"/>
<path d="M96.081 11.3573C97.7104 12.3001 99.8022 11.7301 100.727 10.1076C101.674 8.4851 101.101 6.40218 99.4719 5.48131C97.8425 4.53852 95.7507 5.10858 94.8259 6.73106C93.8791 8.35355 94.4516 10.4145 96.081 11.3573ZM89.9817 17.0799C89.3211 18.22 89.7175 19.689 90.8625 20.3467C92.0074 21.0045 93.4827 20.6099 94.1433 19.4697C94.8039 18.3296 94.4075 16.8606 93.2625 16.2028C92.1175 15.5451 90.6423 15.9397 89.9817 17.0799ZM88.3963 24.5784C87.6256 24.1398 86.6568 24.403 86.1944 25.1703C85.754 25.9377 86.0182 26.9024 86.7889 27.3629C87.5596 27.8014 88.5284 27.5383 88.9688 26.7709C89.4312 26.0035 89.167 25.0388 88.3963 24.5784ZM84.6971 30.9806C84.1686 30.6736 83.486 30.849 83.1998 31.3752C82.8915 31.9014 83.0677 32.5811 83.5961 32.8662C84.1246 33.1731 84.8072 32.9977 85.0934 32.4715C85.4017 31.9672 85.2255 31.2875 84.6971 30.9806Z" fill="#3569A4"/>
<path d="M87.1192 7.45456C88.8367 7.91499 90.5982 6.90642 91.0386 5.19624C91.501 3.48606 90.4881 1.73202 88.7706 1.29352C87.0531 0.833083 85.2916 1.84165 84.8512 3.55184C84.3888 5.26202 85.4237 7.01605 87.1192 7.45456ZM84.4329 17.4964C85.5999 17.8034 86.8109 17.1237 87.1412 15.9397C87.4495 14.7776 86.7669 13.5717 85.5779 13.2429C84.4108 12.9359 83.1998 13.6156 82.8695 14.7996C82.5612 15.9835 83.2438 17.1894 84.4329 17.4964ZM82.297 25.4115C83.0897 25.6307 83.9264 25.1484 84.1466 24.3591C84.3668 23.5697 83.8824 22.7366 83.0897 22.5173C82.297 22.2981 81.4603 22.7804 81.2401 23.5697C81.0199 24.3591 81.5043 25.1922 82.297 25.4115ZM79.9189 30.3447C79.7868 30.8709 80.0951 31.419 80.6236 31.5725C81.152 31.726 81.7025 31.3971 81.8566 30.8709C81.9887 30.3447 81.6805 29.7966 81.152 29.6431C80.6236 29.5115 80.0731 29.8185 79.9189 30.3447Z" fill="#4B8DCB"/>
<path d="M77.4087 6.00755C79.0602 6.00755 80.4254 4.67011 80.4254 3.00378C80.4254 1.35937 79.0822 0 77.4087 0C75.7573 0 74.3921 1.33745 74.3921 3.00378C74.4141 4.67011 75.7573 6.00755 77.4087 6.00755ZM77.4087 12.3878C76.3078 12.3878 75.405 13.2868 75.405 14.383C75.405 15.4793 76.3078 16.3783 77.4087 16.3783C78.5097 16.3783 79.4125 15.4793 79.4125 14.383C79.4125 13.2868 78.5317 12.3878 77.4087 12.3878ZM78.8179 23.2848C78.8179 22.5174 78.1794 21.8815 77.4087 21.8815C76.6381 21.8815 75.9995 22.5174 75.9995 23.2848C75.9995 24.0521 76.6381 24.688 77.4087 24.688C78.2014 24.666 78.8179 24.0521 78.8179 23.2848ZM77.4087 29.2704C76.9023 29.2704 76.5059 29.665 76.5059 30.1693C76.5059 30.6736 76.9023 31.0683 77.4087 31.0683C77.9152 31.0683 78.3115 30.6736 78.3115 30.1693C78.3115 29.665 77.9152 29.2704 77.4087 29.2704Z" fill="#3398B3"/>
<path d="M67.6102 7.10385C69.1075 6.70919 69.9883 5.17441 69.5919 3.68349C69.1956 2.19256 67.6542 1.31554 66.1569 1.7102C64.6596 2.10486 63.7789 3.63963 64.1752 5.13056C64.5715 6.62149 66.1129 7.4985 67.6102 7.10385ZM68.0946 15.8521C68.3589 16.8168 69.3497 17.3869 70.2965 17.1237C71.2654 16.8606 71.8379 15.874 71.5736 14.9312C71.3094 13.9665 70.3186 13.3964 69.3717 13.6595C68.4029 13.9226 67.8304 14.9093 68.0946 15.8521ZM70.8911 24.3153C71.0672 25.0169 71.7938 25.4115 72.4764 25.2361C73.181 25.0607 73.5774 24.3372 73.4012 23.6356C73.2251 22.934 72.4985 22.5393 71.8159 22.7147C71.1112 22.9121 70.7149 23.6137 70.8911 24.3153ZM73.159 30.849C73.2691 31.2656 73.7095 31.5287 74.1499 31.4191C74.5683 31.3095 74.8325 30.871 74.7224 30.4325C74.6123 30.0159 74.1719 29.7528 73.7315 29.8624C73.3132 29.972 73.0489 30.4105 73.159 30.849Z" fill="#02A496"/>
<path d="M58.3622 10.7214C59.6173 9.99787 60.0357 8.41924 59.309 7.16949C58.5824 5.91974 56.997 5.50316 55.7419 6.2267C54.4868 6.95024 54.0685 8.52886 54.7951 9.77861C55.5217 11.0064 57.1291 11.423 58.3622 10.7214ZM63.5808 19.7108C64.3514 19.2723 64.6157 18.2857 64.1753 17.5402C63.7349 16.7728 62.744 16.5097 61.9734 16.9482C61.2027 17.3867 60.9385 18.3734 61.3788 19.1408C61.8413 19.8862 62.8101 20.1493 63.5808 19.7108ZM67.8525 27.0558C68.425 26.727 68.6232 25.9815 68.2929 25.4114C67.9626 24.8414 67.2139 24.644 66.6414 24.9729C66.0689 25.3018 65.8708 26.0253 66.2011 26.6173C66.5313 27.1874 67.28 27.3847 67.8525 27.0558ZM71.3095 31.6382C71.1113 31.3094 70.693 31.1997 70.3407 31.3751C70.0104 31.5725 69.9003 31.9891 70.0764 32.3399C70.2746 32.6687 70.693 32.7784 71.0453 32.603C71.3976 32.3837 71.5077 31.9671 71.3095 31.6382Z" fill="#00AA75"/>
<path d="M50.347 16.6194C51.2938 15.6767 51.2938 14.1638 50.347 13.221C49.4001 12.2782 47.8808 12.2782 46.934 13.221C45.9872 14.1638 45.9872 15.6767 46.934 16.6194C47.8808 17.5403 49.4001 17.5403 50.347 16.6194ZM57.7234 21.9692C57.1729 21.4211 56.2921 21.4211 55.7416 21.9692C55.1912 22.5174 55.1912 23.3944 55.7416 23.9425C56.2921 24.4907 57.1729 24.4907 57.7234 23.9425C58.2738 23.4163 58.2738 22.5174 57.7234 21.9692ZM63.8227 28.4591C63.3823 28.0206 62.6997 28.0206 62.2593 28.4591C61.8189 28.8976 61.8189 29.5773 62.2593 30.0158C62.6997 30.4544 63.3823 30.4544 63.8227 30.0158C64.241 29.5993 64.241 28.8976 63.8227 28.4591ZM68.3586 33.6993C68.1164 33.4581 67.7421 33.4581 67.4999 33.6993C67.2577 33.9405 67.2577 34.3132 67.4999 34.5544C67.7421 34.7956 68.1164 34.7956 68.3586 34.5544C68.6008 34.3132 68.6008 33.9186 68.3586 33.6993Z" fill="#4FBA69"/>
<path d="M41.0111 25.1484C42.0681 25.7623 43.4112 25.3895 44.0278 24.3371C44.6443 23.2847 44.27 21.9473 43.2131 21.3333C42.1561 20.7194 40.813 21.0922 40.1964 22.1446C39.5799 23.197 39.9542 24.5345 41.0111 25.1484ZM52.6813 27.9767C52.1088 27.6479 51.3602 27.8452 51.0299 28.4152C50.6996 28.9853 50.8978 29.7308 51.4703 30.0596C52.0428 30.3885 52.7914 30.1912 53.1217 29.6211C53.452 29.0292 53.2538 28.3056 52.6813 27.9767ZM60.322 32.5811C59.8376 32.296 59.221 32.4714 58.9568 32.9538C58.6705 33.4362 58.8467 34.0501 59.3311 34.3132C59.8155 34.5982 60.4321 34.4228 60.6963 33.9404C60.9605 33.48 60.7844 32.8661 60.322 32.5811Z" fill="#7EC45F"/>
<path d="M118.166 38.6982C115.502 38.6982 113.344 40.8469 113.344 43.4999C113.344 46.1529 115.502 48.3016 118.166 48.3016C120.83 48.3016 122.988 46.1529 122.988 43.4999C122.988 40.8469 120.83 38.6982 118.166 38.6982ZM110.195 43.4999C110.195 41.6143 108.654 40.0576 106.738 40.0576C104.822 40.0576 103.281 41.5924 103.281 43.4999C103.281 45.3855 104.822 46.9422 106.738 46.9422C108.654 46.9422 110.195 45.4074 110.195 43.4999ZM97.8202 41.1539C96.521 41.1539 95.4641 42.2063 95.4641 43.4999C95.4641 44.7935 96.521 45.8459 97.8202 45.8459C99.1193 45.8459 100.176 44.7935 100.176 43.4999C100.176 42.2063 99.1193 41.1539 97.8202 41.1539Z" fill="#4C609B"/>
<path d="M92.4259 43.5001C92.4259 42.6669 91.7434 41.9653 90.8846 41.9653C90.0479 41.9653 89.3433 42.645 89.3433 43.5001C89.3433 44.3333 90.0259 45.0349 90.8846 45.0349C91.7434 45.0349 92.4259 44.3333 92.4259 43.5001Z" fill="#54669F"/>
<path d="M117.924 49.7488C115.568 49.1129 113.145 50.5162 112.529 52.8622C111.89 55.2082 113.3 57.62 115.656 58.2339C118.012 58.8697 120.434 57.4665 121.05 55.1205C121.667 52.7745 120.258 50.3846 117.924 49.7488ZM104.954 53.9365C106.562 54.375 108.213 53.4103 108.631 51.8097C109.072 50.2092 108.103 48.5648 106.496 48.1482C104.888 47.7097 103.237 48.6744 102.818 50.275C102.4 51.8755 103.347 53.498 104.954 53.9365ZM96.543 50.867C97.71 51.1739 98.921 50.4942 99.2513 49.3102C99.5596 48.1482 98.877 46.9423 97.688 46.6134C96.5209 46.3065 95.3099 46.9862 94.9796 48.1701C94.6713 49.3541 95.3539 50.56 96.543 50.867ZM90.0693 48.3017C90.818 48.499 91.5886 48.0605 91.7868 47.315C91.985 46.5696 91.5446 45.8022 90.7959 45.6049C90.0473 45.4075 89.2766 45.846 89.0784 46.5915C88.8803 47.337 89.3207 48.1044 90.0693 48.3017Z" fill="#746FA8"/>
<path d="M114.709 60.2949C112.793 59.1986 110.349 59.8564 109.226 61.7639C108.125 63.6714 108.786 66.1051 110.702 67.2233C112.617 68.3196 115.083 67.6618 116.184 65.7543C117.285 63.8468 116.625 61.4131 114.709 60.2949ZM105.219 59.4617C105.99 58.1243 105.527 56.4141 104.184 55.6467C102.841 54.8793 101.123 55.3398 100.353 56.6772C99.582 58.0146 100.044 59.7248 101.388 60.4922C102.731 61.2596 104.448 60.7992 105.219 59.4617ZM96.8076 54.6162C97.3581 53.6515 97.0278 52.4456 96.081 51.8975C95.1121 51.3493 93.9011 51.6782 93.3506 52.621C92.8001 53.5857 93.1304 54.7916 94.0772 55.3397C95.024 55.9098 96.2571 55.5809 96.8076 54.6162ZM90.2019 50.8231C90.5542 50.2092 90.356 49.398 89.7174 49.0472C89.1009 48.6964 88.2862 48.8937 87.9339 49.5295C87.5816 50.1434 87.7798 50.9327 88.4183 51.3055C89.0569 51.6563 89.8496 51.459 90.2019 50.8231Z" fill="#99558E"/>
<path d="M103.655 69.613C102.246 71.0163 102.246 73.2965 103.655 74.6997C105.064 76.103 107.354 76.103 108.764 74.6997C110.173 73.2965 110.173 71.0163 108.764 69.613C107.354 68.2098 105.064 68.2098 103.655 69.613ZM99.9781 65.9296C100.991 64.921 100.991 63.2766 99.9781 62.268C98.9652 61.2595 97.3138 61.2595 96.3009 62.268C95.288 63.2766 95.288 64.921 96.3009 65.9296C97.3138 66.9601 98.9652 66.9601 99.9781 65.9296ZM93.1081 59.0888C93.8127 58.3872 93.8127 57.2471 93.1081 56.5455C92.4035 55.8439 91.2585 55.8439 90.5539 56.5455C89.8493 57.2471 89.8493 58.3872 90.5539 59.0888C91.2585 59.7905 92.4035 59.7905 93.1081 59.0888ZM86.084 53.8048C86.5464 54.2653 87.3171 54.2653 87.7795 53.8048C88.2419 53.3444 88.2419 52.577 87.7795 52.1166C87.3171 51.6561 86.5464 51.6561 86.084 52.1166C85.5996 52.577 85.5996 53.3225 86.084 53.8048Z" fill="#AF3579"/>
<path d="M96.081 75.6426C94.4516 76.5854 93.9011 78.6464 94.8259 80.2688C95.7727 81.8913 97.8425 82.4395 99.4719 81.5186C101.101 80.5758 101.652 78.5148 100.727 76.8923C99.7802 75.2698 97.7104 74.6998 96.081 75.6426ZM94.1433 67.5302C93.4827 66.3901 92.0074 65.9954 90.8625 66.6532C89.7175 67.3109 89.3211 68.7799 89.9817 69.9201C90.6423 71.0602 92.1175 71.4548 93.2625 70.7971C94.4075 70.1393 94.8039 68.6703 94.1433 67.5302ZM88.3963 62.4216C89.167 61.9831 89.4312 60.9964 88.9908 60.229C88.5504 59.4616 87.5596 59.1985 86.8109 59.637C86.0403 60.0755 85.776 61.0622 86.2164 61.8077C86.6568 62.597 87.6256 62.8601 88.3963 62.4216ZM83.5961 54.1118C83.0677 54.4188 82.8915 55.0766 83.1998 55.6028C83.5081 56.129 84.1686 56.3044 84.6971 55.9974C85.2255 55.6905 85.4017 55.0327 85.0934 54.5065C84.7852 54.0022 84.1246 53.8049 83.5961 54.1118Z" fill="#BE266A"/>
<path d="M87.1189 79.5455C85.4014 80.0059 84.3885 81.7599 84.8509 83.4482C85.3133 85.1584 87.0749 86.1669 88.7704 85.7065C90.4879 85.2461 91.5007 83.492 91.0383 81.8038C90.598 80.0936 88.8364 79.085 87.1189 79.5455ZM85.5776 73.7572C86.7446 73.4502 87.4492 72.2443 87.1409 71.0603C86.8327 69.8983 85.6216 69.1967 84.4326 69.5036C83.2656 69.8106 82.5609 71.0165 82.8692 72.2005C83.1775 73.3625 84.3885 74.0641 85.5776 73.7572ZM84.1463 62.6629C83.9261 61.8736 83.1114 61.3912 82.2967 61.6105C81.504 61.8297 81.0196 62.641 81.2398 63.4522C81.46 64.2415 82.2747 64.7239 83.0894 64.5046C83.8821 64.2854 84.3445 63.4522 84.1463 62.6629ZM81.8563 56.1291C81.7022 55.6029 81.1737 55.274 80.6233 55.4275C80.0948 55.5591 79.7645 56.1291 79.9186 56.6553C80.0728 57.1815 80.6012 57.5104 81.1517 57.357C81.6802 57.2035 82.0105 56.6553 81.8563 56.1291Z" fill="#D4535C"/>
<path d="M77.4087 80.9923C75.7573 80.9923 74.3921 82.3298 74.3921 83.9961C74.3921 85.6405 75.7353 86.9999 77.4087 86.9999C79.0602 86.9999 80.4254 85.6625 80.4254 83.9961C80.4254 82.3298 79.0822 80.9923 77.4087 80.9923ZM75.405 72.6168C75.405 73.7131 76.3078 74.6121 77.4087 74.6121C78.5097 74.6121 79.4125 73.7131 79.4125 72.6168C79.4125 71.5206 78.5097 70.6216 77.4087 70.6216C76.3078 70.6216 75.405 71.4987 75.405 72.6168ZM77.4087 65.1184C78.1794 65.1184 78.8179 64.4825 78.8179 63.7152C78.8179 62.9478 78.1794 62.3119 77.4087 62.3119C76.6381 62.3119 75.9995 62.9478 75.9995 63.7152C76.0215 64.5045 76.6381 65.1184 77.4087 65.1184ZM77.4087 55.9316C76.9023 55.9316 76.5059 56.3263 76.5059 56.8306C76.5059 57.3349 76.9023 57.7295 77.4087 57.7295C77.9152 57.7295 78.3115 57.3349 78.3115 56.8306C78.3115 56.3482 77.9152 55.9316 77.4087 55.9316Z" fill="#E06550"/>
<path d="M67.6102 79.8962C66.1129 79.5016 64.5715 80.3786 64.1752 81.8695C63.7789 83.3605 64.6596 84.8952 66.1569 85.2899C67.6542 85.6845 69.1956 84.8075 69.5919 83.3166C69.9883 81.8257 69.1075 80.2909 67.6102 79.8962ZM70.3185 69.8763C69.3497 69.6132 68.3588 70.1833 68.1166 71.148C67.8524 72.1127 68.4249 73.0994 69.3937 73.3406C70.3626 73.6037 71.3534 73.0336 71.5956 72.0689C71.8379 71.1042 71.2654 70.1175 70.3185 69.8763ZM72.4984 61.764C71.7938 61.5885 71.0892 61.9832 70.9131 62.6848C70.7369 63.3864 71.1332 64.088 71.8379 64.2854C72.5425 64.4608 73.2471 64.0661 73.4232 63.3645C73.5994 62.6629 73.181 61.9613 72.4984 61.764ZM74.7224 56.5676C74.8325 56.1511 74.5903 55.7126 74.1499 55.581C73.7315 55.4714 73.2911 55.7126 73.159 56.1511C73.0489 56.5676 73.2911 57.0062 73.7315 57.1377C74.1719 57.2473 74.6123 57.0061 74.7224 56.5676Z" fill="#F57F28"/>
<path d="M58.362 76.3003C57.1069 75.5768 55.5216 76.0153 54.7949 77.2431C54.0683 78.4928 54.5087 80.0715 55.7417 80.795C56.9968 81.5185 58.5822 81.08 59.3088 79.8522C60.0355 78.6025 59.6171 77.0019 58.362 76.3003ZM63.5806 67.2889C62.8099 66.8504 61.8411 67.1135 61.3786 67.8809C60.9383 68.6483 61.2025 69.613 61.9732 70.0515C62.7438 70.4901 63.7127 70.2269 64.1751 69.4596C64.6155 68.7141 64.3512 67.7275 63.5806 67.2889ZM66.6412 62.0269C67.2137 62.3557 67.9624 62.1584 68.2927 61.5883C68.623 61.0183 68.4248 60.2728 67.8523 59.9439C67.2798 59.6151 66.5311 59.8124 66.2008 60.3824C65.8706 60.9525 66.0687 61.698 66.6412 62.0269ZM71.0671 54.4187C70.7368 54.2214 70.2964 54.331 70.0982 54.6818C69.9001 55.0107 70.0102 55.4492 70.3625 55.6466C70.6928 55.8439 71.1331 55.7343 71.3313 55.3835C71.5075 55.0327 71.3974 54.6161 71.0671 54.4187Z" fill="#F89829"/>
<path d="M46.934 70.4025C45.9872 71.3453 45.9872 72.8581 46.934 73.8009C47.8808 74.7437 49.4001 74.7437 50.347 73.8009C51.2938 72.8581 51.2938 71.3453 50.347 70.4025C49.4001 69.4597 47.8808 69.4597 46.934 70.4025ZM55.7416 63.0575C55.1912 63.6056 55.1912 64.4826 55.7416 65.0307C56.2921 65.5789 57.1729 65.5789 57.7234 65.0307C58.2738 64.4826 58.2738 63.6056 57.7234 63.0575C57.1729 62.5093 56.2921 62.5093 55.7416 63.0575ZM62.2593 56.9841C61.8189 57.4226 61.8189 58.1023 62.2593 58.5408C62.6997 58.9793 63.3823 58.9793 63.8227 58.5408C64.263 58.1023 64.263 57.4226 63.8227 56.9841C63.3823 56.5456 62.6997 56.5456 62.2593 56.9841ZM68.3586 52.4675C68.1164 52.2263 67.7421 52.2263 67.4999 52.4675C67.2577 52.7087 67.2577 53.0814 67.4999 53.3226C67.7421 53.5638 68.1164 53.5638 68.3586 53.3226C68.6008 53.0814 68.6008 52.6868 68.3586 52.4675Z" fill="#FDC126"/>
<path d="M41.077 61.7859C40.0201 62.3998 39.6678 63.7372 40.2623 64.7897C40.8789 65.8421 42.222 66.1929 43.279 65.6009C44.3359 64.987 44.6882 63.6495 44.0937 62.5971C43.4771 61.5447 42.134 61.172 41.077 61.7859ZM51.4921 56.9623C50.9196 57.2912 50.7215 58.0366 51.0517 58.6067C51.382 59.1768 52.1307 59.3741 52.7032 59.0452C53.2757 58.7163 53.4739 57.9709 53.1436 57.4008C52.7913 56.8307 52.0646 56.6334 51.4921 56.9623ZM59.3089 52.6868C58.8245 52.9719 58.6704 53.5639 58.9346 54.0462C59.2209 54.5286 59.8154 54.682 60.2998 54.4189C60.7842 54.1339 60.9384 53.5419 60.6741 53.0596C60.4099 52.5772 59.7934 52.4018 59.3089 52.6868Z" fill="#FED626"/>
<path d="M36.5851 36.5278H40.1302V50.0777H36.5851V36.5278ZM38.765 30.4764C37.664 30.1914 36.5411 30.8272 36.2548 31.9235C35.9686 33.0198 36.6071 34.138 37.7081 34.423C38.809 34.708 39.932 34.0722 40.2183 32.9759C40.5045 31.8797 39.8439 30.7615 38.765 30.4764ZM51.0737 50.3627C50.1489 50.3627 49.3122 50.2093 48.5855 49.8804C47.8369 49.5515 47.2424 49.0691 46.802 48.4333V56.8526H43.345V36.5278H46.78V38.4134C47.2424 37.7337 47.8369 37.2075 48.5635 36.8348C49.3122 36.4401 50.1269 36.2647 51.0517 36.2647C51.9104 36.2647 52.7251 36.4182 53.5178 36.7471C54.3105 37.076 55.0151 37.5364 55.6096 38.1722C56.2042 38.7861 56.6886 39.5316 57.0629 40.4086C57.4152 41.2856 57.6134 42.2504 57.6134 43.3247C57.6134 44.421 57.4372 45.3857 57.0629 46.2408C56.6886 47.0959 56.2042 47.8413 55.6096 48.4552C55.0151 49.0691 54.3105 49.5515 53.5398 49.8804C52.7251 50.2093 51.9104 50.3627 51.0737 50.3627ZM50.3691 47.0959C50.8975 47.0959 51.382 46.9862 51.8223 46.7889C52.2847 46.5916 52.6811 46.3065 53.0114 45.9777C53.3637 45.6269 53.6279 45.2322 53.8261 44.7718C54.0243 44.3113 54.1123 43.8071 54.1123 43.2808C54.1123 42.7546 54.0243 42.2504 53.8261 41.7899C53.6279 41.3295 53.3637 40.9348 53.0114 40.584C52.6591 40.2332 52.2627 39.9701 51.8223 39.7728C51.3599 39.5755 50.8755 39.4658 50.3691 39.4658C49.8406 39.4658 49.3342 39.5755 48.8718 39.7728C48.4094 39.9701 48.013 40.2551 47.6827 40.584C47.3525 40.9348 47.0882 41.3295 46.8901 41.8118C46.6919 42.2723 46.6038 42.7766 46.6038 43.3028C46.6038 43.829 46.6919 44.3333 46.8901 44.7937C47.0882 45.2541 47.3525 45.6488 47.6827 45.9996C48.013 46.3504 48.4094 46.6135 48.8718 46.8108C49.3122 47.0082 49.8186 47.0959 50.3691 47.0959ZM60.1015 36.5278H63.5365V38.6107C63.8668 37.7995 64.3733 37.2075 65.0118 36.8348C65.6504 36.4621 66.421 36.2647 67.3018 36.2647C67.7642 36.2647 68.1826 36.3086 68.5789 36.4182C68.9753 36.5278 69.3055 36.6375 69.5918 36.7909L68.3367 40.2113C68.1606 40.0797 67.8963 39.9701 67.5881 39.8824C67.2578 39.7947 66.9055 39.7509 66.5311 39.7509C65.6504 39.7509 64.9237 39.992 64.3953 40.4963C63.8668 41.0006 63.5806 41.8118 63.5806 42.952V50.0996H60.1236L60.1015 36.5278ZM77.2765 50.3627C76.2416 50.3627 75.2948 50.1873 74.436 49.8146C73.5552 49.4419 72.8066 48.9376 72.146 48.3018C71.5075 47.6659 71.001 46.8985 70.6267 46.0654C70.2744 45.2103 70.0762 44.2894 70.0762 43.3247C70.0762 42.36 70.2524 41.4391 70.6267 40.584C70.979 39.7289 71.4854 38.9835 72.146 38.3476C72.7846 37.7118 73.5552 37.2075 74.436 36.8348C75.3168 36.4621 76.2636 36.2867 77.2765 36.2867C78.2894 36.2867 79.2362 36.4621 80.1169 36.8348C80.9977 37.2075 81.7684 37.7118 82.4069 38.3476C83.0455 38.9835 83.5519 39.7289 83.9263 40.584C84.3006 41.4391 84.4767 42.36 84.4767 43.3247C84.4767 44.2894 84.3006 45.2103 83.9263 46.0654C83.5519 46.9205 83.0455 47.6659 82.4069 48.3018C81.7684 48.9376 80.9977 49.4419 80.1169 49.8146C79.2582 50.1873 78.3114 50.3627 77.2765 50.3627ZM77.3205 47.0739C77.849 47.0739 78.3334 46.9643 78.7738 46.767C79.2362 46.5696 79.6325 46.3065 79.9628 45.9557C80.2931 45.6269 80.5573 45.2322 80.7555 44.7718C80.9537 44.3113 81.0418 43.8071 81.0418 43.2808C81.0418 42.7546 80.9537 42.2723 80.7555 41.7899C80.5573 41.3295 80.2931 40.9129 79.9628 40.584C79.6325 40.2551 79.2362 39.992 78.7738 39.7728C78.3114 39.5755 77.827 39.4658 77.3205 39.4658C76.7921 39.4658 76.3076 39.5755 75.8673 39.7728C75.4049 39.9701 75.0085 40.2332 74.6782 40.584C74.3479 40.9129 74.0837 41.3295 73.8855 41.7899C73.6874 42.2504 73.5993 42.7546 73.5993 43.2808C73.5993 43.8071 73.6874 44.3113 73.8855 44.7718C74.0837 45.2322 74.3479 45.6269 74.6782 45.9557C75.0085 46.2846 75.4049 46.5477 75.8673 46.767C76.3076 46.9862 76.7921 47.0739 77.3205 47.0739ZM12.0117 36.5278H15.5348L18.2872 45.1884L21.502 36.5278H24.6067L27.7774 45.1884L30.6179 36.5278H34.141L29.539 50.0777H26.2581L23.0213 41.2418L19.7404 50.0777H16.4155L12.0117 36.5278Z" fill="#341D55"/>
</svg>
